<?xml version="1.0" encoding="utf-8"?>
<svg version="1.1" xmlns:xlink="http://www.w3.org/1999/xlink" width="25px" height="13px" xmlns="http://www.w3.org/2000/svg">
  <g transform="matrix(1 0 0 1 -1091 -637 )">
    <path d="M 24.5483870967742 1.79461279461279  C 24.8494623655914 1.99887766554433  25 2.24691358024691  25 2.53872053872054  C 25 2.83052749719416  24.8494623655914 3.07856341189674  24.5483870967742 3.28282828282828  L 12.8709677419355 11.2053872053872  L 10.6774193548387 12.6936026936027  C 10.3763440860215 12.8978675645342  10.010752688172 13  9.58064516129032 13  C 9.1505376344086 13  8.78494623655914 12.8978675645342  8.48387096774194 12.6936026936027  L 6.29032258064516 11.2053872053872  L 0.451612903225806 7.24410774410774  C 0.150537634408602 7.03984287317621  0 6.79180695847362  0 6.5  C 0 6.20819304152637  0.150537634408602 5.96015712682379  0.451612903225806 5.75589225589226  L 2.64516129032258 4.26767676767677  C 2.94623655913978 4.06341189674523  3.31182795698925 3.96127946127946  3.74193548387097 3.96127946127946  C 4.17204301075269 3.96127946127946  4.53763440860215 4.06341189674523  4.83870967741935 4.26767676767677  L 9.58064516129032 7.49579124579125  L 20.1612903225806 0.306397306397306  C 20.4623655913979 0.102132435465768  20.8279569892473 0  21.258064516129 0  C 21.6881720430108 0  22.0537634408602 0.102132435465768  22.3548387096774 0.306397306397306  L 24.5483870967742 1.79461279461279  Z " fill-rule="nonzero" fill="#000000" stroke="none" transform="matrix(1 0 0 1 1091 637 )" />
  </g>
</svg>