<?xml version="1.0" encoding="utf-8"?>
<svg version="1.1" xmlns:xlink="http://www.w3.org/1999/xlink" width="28px" height="30px" xmlns="http://www.w3.org/2000/svg">
  <g transform="matrix(1 0 0 1 -1146 -995 )">
    <path d="M 10.0028409090909 24.82421875  C 10.1221590909091 24.70703125  10.1818181818182 24.5572916666667  10.1818181818182 24.375  L 10.1818181818182 10.625  C 10.1818181818182 10.4427083333333  10.1221590909091 10.29296875  10.0028409090909 10.17578125  C 9.88352272727273 10.05859375  9.73106060606061 10  9.54545454545454 10  L 8.27272727272727 10  C 8.08712121212121 10  7.93465909090909 10.05859375  7.81534090909091 10.17578125  C 7.69602272727273 10.29296875  7.63636363636364 10.4427083333333  8 10.625  L 8 24.375  C 7.63636363636364 24.5572916666667  7.69602272727273 24.70703125  7.81534090909091 24.82421875  C 7.93465909090909 24.94140625  8.08712121212121 25  8.27272727272727 25  L 9.54545454545454 25  C 9.73106060606061 25  9.88352272727273 24.94140625  10.0028409090909 24.82421875  Z M 15.09375 24.82421875  C 15.2130681818182 24.70703125  15.2727272727273 24.5572916666667  15 24.375  L 15 10.625  C 15.2727272727273 10.4427083333333  15.2130681818182 10.29296875  15.09375 10.17578125  C 14.9744318181818 10.05859375  14.8219696969697 10  14.6363636363636 10  L 13.3636363636364 10  C 13.1780303030303 10  13.0255681818182 10.05859375  12.90625 10.17578125  C 12.7869318181818 10.29296875  12.7272727272727 10.4427083333333  13 10.625  L 13 24.375  C 12.7272727272727 24.5572916666667  12.7869318181818 24.70703125  12.90625 24.82421875  C 13.0255681818182 24.94140625  13.1780303030303 25  13.3636363636364 25  L 14.6363636363636 25  C 14.8219696969697 25  14.9744318181818 24.94140625  15.09375 24.82421875  Z M 20.1846590909091 24.82421875  C 20.3039772727273 24.70703125  20.3636363636364 24.5572916666667  20 24.375  L 20 10.625  C 20.3636363636364 10.4427083333333  20.3039772727273 10.29296875  20.1846590909091 10.17578125  C 20.0653409090909 10.05859375  19.9128787878788 10  19.7272727272727 10  L 18.4545454545455 10  C 18.2689393939394 10  18.1164772727273 10.05859375  17.9971590909091 10.17578125  C 17.8778409090909 10.29296875  17.8181818181818 10.4427083333333  17.8181818181818 10.625  L 17.8181818181818 24.375  C 17.8181818181818 24.5572916666667  17.8778409090909 24.70703125  17.9971590909091 24.82421875  C 18.1164772727273 24.94140625  18.2689393939394 25  18.4545454545455 25  L 19.7272727272727 25  C 19.9128787878788 25  20.0653409090909 24.94140625  20.1846590909091 24.82421875  Z M 10.5198863636364 2.71484375  L 9.54545454545454 5  L 18.4545454545455 5  L 17.5 2.71484375  C 17.407196969697 2.59765625  17.2945075757576 2.52604166666667  17.1619318181818 2.5  L 10.8579545454545 2.5  C 10.7253787878788 2.52604166666667  10.6126893939394 2.59765625  10.5198863636364 2.71484375  Z M 27.8210227272727 5.17578125  C 27.9403409090909 5.29296875  28 5.44270833333333  28 5.625  L 28 6.875  C 28 7.05729166666666  27.9403409090909 7.20703125  27.8210227272727 7.32421875  C 27.7017045454545 7.44140625  27.5492424242424 7.5  27.3636363636364 7.5  L 25 7.5  L 25 26.015625  C 25.4545454545455 27.0963541666667  25.1429924242424 28.0305989583333  24.5198863636364 28.818359375  C 23.8967803030303 29.6061197916667  23.1477272727273 30  22.2727272727273 30  L 5.72727272727273 30  C 4.85227272727273 30  4.1032196969697 29.619140625  3.48011363636364 28.857421875  C 2.85700757575758 28.095703125  2.54545454545455 27.1744791666667  3 26.09375  L 3 7.5  L 0.636363636363636 7.5  C 0.450757575757576 7.5  0.298295454545455 7.44140625  0.178977272727273 7.32421875  C 0.0596590909090909 7.20703125  0 7.05729166666666  0 6.875  L 0 5.625  C 0 5.44270833333333  0.0596590909090909 5.29296875  0.178977272727273 5.17578125  C 0.298295454545455 5.05859375  0.450757575757576 5  0.636363636363636 5  L 6.78125 5  L 8.17329545454546 1.73828125  C 8.37215909090909 1.25651041666666  8.73011363636364 0.846354166666664  9.24715909090909 0.507812500000001  C 9.76420454545455 0.169270833333331  10.2878787878788 0  10.8181818181818 0  L 17.1818181818182 0  C 17.7121212121212 0  18.2357954545455 0.169270833333331  18.7528409090909 0.507812500000001  C 19.2698863636364 0.846354166666664  19.6278409090909 1.25651041666666  19.8267045454545 1.73828125  L 21.21875 5  L 27.3636363636364 5  C 27.5492424242424 5  27.7017045454545 5.05859375  27.8210227272727 5.17578125  Z " fill-rule="nonzero" fill="#000000" stroke="none" transform="matrix(1 0 0 1 1146 995 )" />
  </g>
</svg>