<?xml version="1.0" encoding="utf-8"?>
<svg version="1.1" xmlns:xlink="http://www.w3.org/1999/xlink" width="31px" height="30px" xmlns="http://www.w3.org/2000/svg">
  <g transform="matrix(1 0 0 1 -1088 -995 )">
    <path d="M 18.8999399038462 11.7097355769231  C 19.0179286858974 11.8239182692308  19.0769230769231 11.9591346153846  19.0769230769231 12.1153846153846  L 19.0769230769231 13.2692307692308  C 19.0769230769231 13.4254807692308  19.0179286858974 13.5606971153846  18.8999399038462 13.6748798076923  C 18.7819511217949 13.7890625  18.6422275641026 13.8461538461538  18.4807692307692 13.8461538461538  L 14.3076923076923 13.8461538461538  L 14.3076923076923 17.8846153846154  C 14.3076923076923 18.0408653846154  14.2486979166667 18.1760817307692  14.1307091346154 18.2902644230769  C 14.0127203525641 18.4044471153846  13.8729967948718 18.4615384615385  13.7115384615385 18.4615384615385  L 12.5192307692308 18.4615384615385  C 12.3577724358974 18.4615384615385  12.2180488782051 18.4044471153846  12.1000600961538 18.2902644230769  C 11.9820713141026 18.1760817307692  11.9230769230769 18.0408653846154  11.9230769230769 17.8846153846154  L 11.9230769230769 13.8461538461538  L 7.75 13.8461538461538  C 7.58854166666667 13.8461538461538  7.44881810897436 13.7890625  7.33082932692308 13.6748798076923  C 7.21284054487179 13.5606971153846  7.15384615384615 13.4254807692308  7.15384615384615 13.2692307692308  L 7.15384615384615 12.1153846153846  C 7.15384615384615 11.9591346153846  7.21284054487179 11.8239182692308  7.33082932692308 11.7097355769231  C 7.44881810897436 11.5955528846154  7.58854166666667 11.5384615384615  7.75 11.5384615384615  L 11.9230769230769 11.5384615384615  L 11.9230769230769 7.5  C 11.9230769230769 7.34375  11.9820713141026 7.20853365384615  12.1000600961538 7.09435096153846  C 12.2180488782051 6.98016826923077  12.3577724358974 6.92307692307692  12.5192307692308 6.92307692307692  L 13.7115384615385 6.92307692307692  C 13.8729967948718 6.92307692307692  14.0127203525641 6.98016826923077  14.1307091346154 7.09435096153846  C 14.2486979166667 7.20853365384615  14.3076923076923 7.34375  14.3076923076923 7.5  L 14.3076923076923 11.5384615384615  L 18.4807692307692 11.5384615384615  C 18.6422275641026 11.5384615384615  18.7819511217949 11.5955528846154  18.8999399038462 11.7097355769231  Z M 19.01171875 18.3984375  C 20.6449318910256 16.8179086538462  21.4615384615385 14.9158653846154  21.4615384615385 12.6923076923077  C 21.4615384615385 10.46875  20.6449318910256 8.56670673076923  19.01171875 6.98617788461538  C 17.3785056089744 5.40564903846154  15.4130608974359 4.61538461538462  13.1153846153846 4.61538461538462  C 10.8177083333333 4.61538461538462  8.85226362179487 5.40564903846154  7.21905048076923 6.98617788461538  C 5.58583733974359 8.56670673076923  4.76923076923077 10.46875  4.76923076923077 12.6923076923077  C 4.76923076923077 14.9158653846154  5.58583733974359 16.8179086538462  7.21905048076923 18.3984375  C 8.85226362179487 19.9789663461538  10.8177083333333 20.7692307692308  13.1153846153846 20.7692307692308  C 15.4130608974359 20.7692307692308  17.3785056089744 19.9789663461538  19.01171875 18.3984375  Z M 30.3106971153846 26.0697115384615  C 30.7702323717949 26.5144230769231  31 27.0552884615385  31 27.6923076923077  C 31 28.3293269230769  30.7671274038462 28.8731971153846  30.3013822115385 29.3239182692308  C 29.8356370192308 29.7746394230769  29.2736378205128 30  28.6153846153846 30  C 27.9447115384615 30  27.3858173076923 29.7716346153846  26.9387019230769 29.3149038461538  L 20.5486778846154 23.1490384615385  C 18.3255208333333 24.6394230769231  15.8477564102564 25.3846153846154  13.1153846153846 25.3846153846154  C 11.3393429487179 25.3846153846154  9.64092548076923 25.0510817307692  8.02013221153846 24.3840144230769  C 6.39933894230769 23.7169471153846  5.00210336538461 22.8155048076923  3.82842548076923 21.6796875  C 2.65474759615385 20.5438701923077  1.72325721153846 19.1917067307692  1.03395432692308 17.6231971153846  C 0.344651442307692 16.0546875  0 14.4110576923077  0 12.6923076923077  C 0 10.9735576923077  0.344651442307692 9.32992788461539  1.03395432692308 7.76141826923077  C 1.72325721153846 6.19290865384615  2.65474759615385 4.84074519230769  3.82842548076923 3.70492788461538  C 5.00210336538461 2.56911057692308  6.39933894230769 1.66766826923077  8.02013221153846 1.00060096153846  C 9.64092548076923 0.333533653846153  11.3393429487179 0  13.1153846153846 0  C 14.8914262820513 0  16.58984375 0.333533653846153  18.2106370192308 1.00060096153846  C 19.8314302884615 1.66766826923077  21.2286658653846 2.56911057692308  22.40234375 3.70492788461538  C 23.5760216346154 4.84074519230769  24.5075120192308 6.19290865384615  25.1968149038462 7.76141826923077  C 25.8861177884615 9.32992788461539  26.2307692307692 10.9735576923077  26.2307692307692 12.6923076923077  C 26.2307692307692 15.3365384615385  25.4607371794872 17.734375  23.9206730769231 19.8858173076923  L 30.3106971153846 26.0697115384615  Z " fill-rule="nonzero" fill="#000000" stroke="none" transform="matrix(1 0 0 1 1088 995 )" />
  </g>
</svg>