<?xml version="1.0" encoding="utf-8"?>
<svg version="1.1" xmlns:xlink="http://www.w3.org/1999/xlink" width="14px" height="21px" xmlns="http://www.w3.org/2000/svg">
  <g transform="matrix(1 0 0 1 -311 -167 )">
    <path d="M 13.7594501718213 1.2625250501002  C 13.9198167239404 1.40280561122244  14 1.56412825651302  14 1.74649298597194  C 14 1.92885771543086  13.9198167239404 2.09018036072144  13.7594501718213 2.23046092184369  L 4.30584192439863 10.5  L 13.7594501718213 18.7695390781563  C 13.9198167239404 18.9098196392786  14 19.0711422845691  14 19.2535070140281  C 14 19.435871743487  13.9198167239404 19.5971943887776  13.7594501718213 19.7374749498998  L 12.5567010309278 20.7895791583166  C 12.3963344788087 20.9298597194389  12.2119129438717 21  12.0034364261168 21  C 11.794959908362 21  11.610538373425 20.9298597194389  11.4501718213058 20.7895791583166  L 0.240549828178694 10.9839679358717  C 0.0801832760595648 10.8436873747495  0 10.6823647294589  0 10.5  C 0 10.3176352705411  0.0801832760595648 10.1563126252505  0.240549828178694 10.0160320641283  L 11.4501718213058 0.210420841683367  C 11.610538373425 0.0701402805611215  11.794959908362 0  12.0034364261168 0  C 12.2119129438717 0  12.3963344788087 0.0701402805611215  12.5567010309278 0.210420841683367  L 13.7594501718213 1.2625250501002  Z " fill-rule="nonzero" fill="#000000" stroke="none" transform="matrix(1 0 0 1 311 167 )" />
  </g>
</svg>