<?xml version="1.0" encoding="utf-8"?>
<svg version="1.1" xmlns:xlink="http://www.w3.org/1999/xlink" width="43px" height="37px" xmlns="http://www.w3.org/2000/svg">
  <g transform="matrix(1 0 0 1 -250 -999 )">
    <path d="M 39.9205729166667 22.5579927884615  C 40.0624131944444 22.4171674679487  40.1333333333333 22.2504006410256  40 22.0576923076923  L 40 3.55769230769231  C 40.1333333333333 3.36498397435897  40.0624131944444 3.19821714743589  39.9205729166667 3.05739182692308  C 39.7787326388889 2.91656650641025  39.6107638888889 2.84615384615384  39.4166666666667 3  L 3.58333333333333 3  C 3.38923611111111 2.84615384615384  3.22126736111111 2.91656650641025  3.07942708333333 3.05739182692308  C 2.93758680555556 3.19821714743589  2.86666666666667 3.36498397435897  3 3.55769230769231  L 3 22.0576923076923  C 2.86666666666667 22.2504006410256  2.93758680555556 22.4171674679487  3.07942708333333 22.5579927884615  C 3.22126736111111 22.6988181089744  3.38923611111111 22.7692307692308  3.58333333333333 22.7692307692308  L 39.4166666666667 22.7692307692308  C 39.6107638888889 22.7692307692308  39.7787326388889 22.6988181089744  39.9205729166667 22.5579927884615  Z M 41.9473958333333 1.04507211538461  C 42.6491319444444 1.74178685897436  43 2.57932692307692  43 3.55769230769231  L 43 27.75  C 43 28.7283653846154  42.6491319444444 29.5659054487179  41.9473958333333 30.2626201923077  C 41.2456597222222 30.9593349358974  40.4020833333333 31.3076923076923  39.4166666666667 31  L 27.2333333333333 31  C 27.2333333333333 31.8561698717949  27.3527777777778 32.4305889423077  27.5916666666667 33.0309495192308  C 27.8305555555556 33.6313100961538  28.0694444444444 34.1575520833333  28.3083333333333 34.6096754807692  C 28.5472222222222 35.0617988782051  28.6666666666667 35.3842147435897  28.6666666666667 35.5769230769231  C 28.6666666666667 35.9623397435897  28.5248263888889 36.2958733974359  28.2411458333333 36.5775240384615  C 27.9574652777778 36.8591746794872  27.6215277777778 37  27.2333333333333 37  L 15.7666666666667 37  C 15.3784722222222 37  15.0425347222222 36.8591746794872  14.7588541666667 36.5775240384615  C 14.4751736111111 36.2958733974359  14.3333333333333 35.9623397435897  14.3333333333333 35.5769230769231  C 14.3333333333333 35.369391025641  14.4527777777778 35.0432692307692  14.6916666666667 34.5985576923077  C 14.9305555555556 34.1538461538462  15.1694444444444 33.635016025641  15.4083333333333 33.0420673076923  C 15.6472222222222 32.4491185897436  15.7666666666667 31.8709935897436  15.7666666666667 31  L 3.58333333333333 31  C 2.59791666666667 31.3076923076923  1.75434027777778 30.9593349358974  1.05260416666667 30.2626201923077  C 0.350868055555556 29.5659054487179  0 28.7283653846154  0 27.75  L 0 3.55769230769231  C 0 2.57932692307692  0.350868055555556 1.74178685897436  1.05260416666667 1.04507211538461  C 1.75434027777778 0.348357371794872  2.59791666666667 0  3.58333333333333 0  L 39.4166666666667 0  C 40.4020833333333 0  41.2456597222222 0.348357371794872  41.9473958333333 1.04507211538461  Z " fill-rule="nonzero" fill="#000000" stroke="none" transform="matrix(1 0 0 1 250 999 )" />
  </g>
</svg>