<?xml version="1.0" encoding="utf-8"?>
<svg version="1.1" xmlns:xlink="http://www.w3.org/1999/xlink" width="17px" height="17px" xmlns="http://www.w3.org/2000/svg">
  <g transform="matrix(1 0 0 1 -1076 -475 )">
    <path d="M 1084.5 475  C 1089.26 475  1093 478.74  1093 483.5  C 1093 488.26  1089.26 492  1084.5 492  C 1079.74 492  1076 488.26  1076 483.5  C 1076 478.74  1079.74 475  1084.5 475  Z " fill-rule="nonzero" fill="#d7d7d7" stroke="none" />
    <path d="M 1084.5 475.5  C 1088.98 475.5  1092.5 479.02  1092.5 483.5  C 1092.5 487.98  1088.98 491.5  1084.5 491.5  C 1080.02 491.5  1076.5 487.98  1076.5 483.5  C 1076.5 479.02  1080.02 475.5  1084.5 475.5  Z " stroke-width="1" stroke="#ffffff" fill="none" />
  </g>
</svg>