<?xml version="1.0" encoding="utf-8"?>
<svg version="1.1" xmlns:xlink="http://www.w3.org/1999/xlink" width="27px" height="16px" xmlns="http://www.w3.org/2000/svg">
  <g transform="matrix(1 0 0 1 -1333 -867 )">
    <path d="M 26.7294589178357 1.64948453608247  C 26.9098196392786 1.83276059564719  27 2.04352806414662  27 2.28178694158076  C 27 2.52004581901489  26.9098196392786 2.73081328751432  26.7294589178357 2.91408934707904  L 14.122244488978 15.7250859106529  C 13.9418837675351 15.9083619702176  13.7344689378758 16  13.5 16  C 13.2655310621242 16  13.0581162324649 15.9083619702176  12.877755511022 15.7250859106529  L 0.270541082164329 2.91408934707904  C 0.0901803607214431 2.73081328751432  0 2.52004581901489  0 2.28178694158076  C 0 2.04352806414662  0.0901803607214431 1.83276059564719  0.270541082164329 1.64948453608247  L 1.62324649298597 0.27491408934708  C 1.80360721442886 0.0916380297823576  2.01102204408818 0  2.24549098196393 0  C 2.47995991983968 0  2.687374749499 0.0916380297823576  2.86773547094188 0.27491408934708  L 13.5 11.0790378006873  L 24.1322645290581 0.27491408934708  C 24.312625250501 0.0916380297823576  24.5200400801603 0  24.7545090180361 0  C 24.9889779559118 0  25.1963927855711 0.0916380297823576  25.376753507014 0.27491408934708  L 26.7294589178357 1.64948453608247  Z " fill-rule="nonzero" fill="#000000" stroke="none" transform="matrix(1 0 0 1 1333 867 )" />
  </g>
</svg>