<?xml version="1.0" encoding="utf-8"?>
<svg version="1.1" xmlns:xlink="http://www.w3.org/1999/xlink" width="10px" height="10px" xmlns="http://www.w3.org/2000/svg">
  <g transform="matrix(1 0 0 1 -333 -457 )">
    <path d="M 338 457  C 340.8 457  343 459.2  343 462  C 343 464.8  340.8 467  338 467  C 335.2 467  333 464.8  333 462  C 333 459.2  335.2 457  338 457  Z " fill-rule="nonzero" fill="#ffffff" stroke="none" />
    <path d="M 338 457.5  C 340.52 457.5  342.5 459.48  342.5 462  C 342.5 464.52  340.52 466.5  338 466.5  C 335.48 466.5  333.5 464.52  333.5 462  C 333.5 459.48  335.48 457.5  338 457.5  Z " stroke-width="1" stroke="#797979" fill="none" />
  </g>
</svg>