<?xml version="1.0" encoding="utf-8"?>
<svg version="1.1" xmlns:xlink="http://www.w3.org/1999/xlink" width="12px" height="12px" viewBox="1112 693  12 12" xmlns="http://www.w3.org/2000/svg">
  <path d="M 1118 693  C 1121.36 693  1124 695.64  1124 699  C 1124 702.36  1121.36 705  1118 705  C 1114.64 705  1112 702.36  1112 699  C 1112 695.64  1114.64 693  1118 693  Z " fill-rule="nonzero" fill="#ffffff" stroke="none" />
  <path d="M 1118 693.5  C 1121.08 693.5  1123.5 695.92  1123.5 699  C 1123.5 702.08  1121.08 704.5  1118 704.5  C 1114.92 704.5  1112.5 702.08  1112.5 699  C 1112.5 695.92  1114.92 693.5  1118 693.5  Z " stroke-width="1" stroke="#797979" fill="none" />
  <path d="M 1118 702  C 1116.32 702  1115 700.68  1115 699  C 1115 697.32  1116.32 696  1118 696  C 1119.68 696  1121 697.32  1121 699  C 1121 700.68  1119.68 702  1118 702  " fill-rule="nonzero" fill="#797979" stroke="none" />
</svg>