<?xml version="1.0" encoding="utf-8"?>
<svg version="1.1" xmlns:xlink="http://www.w3.org/1999/xlink" width="45px" height="45px" xmlns="http://www.w3.org/2000/svg">
  <g transform="matrix(1 0 0 1 -965 -297 )">
    <path d="M 987.5 297  C 1000.1 297  1010 306.9  1010 319.5  C 1010 332.1  1000.1 342  987.5 342  C 974.9 342  965 332.1  965 319.5  C 965 306.9  974.9 297  987.5 297  Z " fill-rule="nonzero" fill="#ffffff" stroke="none" />
    <path d="M 987.5 297.5  C 999.82 297.5  1009.5 307.18  1009.5 319.5  C 1009.5 331.82  999.82 341.5  987.5 341.5  C 975.18 341.5  965.5 331.82  965.5 319.5  C 965.5 307.18  975.18 297.5  987.5 297.5  Z " stroke-width="1" stroke="#333333" fill="none" />
  </g>
</svg>