<?xml version="1.0" encoding="utf-8"?>
<svg version="1.1" xmlns:xlink="http://www.w3.org/1999/xlink" width="131px" height="117px" xmlns="http://www.w3.org/2000/svg">
  <g transform="matrix(1 0 0 1 -934 -607 )">
    <path d="M 934 607  L 1065 607  L 1065 724  L 934 724  L 934 607  " fill-rule="nonzero" fill="#cccccc" stroke="none" />
    <path d="M 942 615  L 1057 615  L 1057 716  L 942 716  L 942 615  " fill-rule="nonzero" fill="#ffffff" stroke="none" />
    <path d="M 1010.895 642.1  C 1005.981 642.1  1002.12 638.239  1002.12 633.325  C 1002.12 628.411  1005.981 624.55  1010.895 624.55  C 1015.809 624.55  1019.67 628.411  1019.67 633.325  C 1019.67 638.239  1015.809 642.1  1010.895 642.1  " fill-rule="nonzero" fill="#cccccc" stroke="none" />
    <path d="M 945 713  L 945 660.75  L 972.25 637  L 1010.4 662.091603053435  L 1032.2 651.25  L 1054 662.091603053435  L 1054 713  L 945 713  " fill-rule="nonzero" fill="#169bd5" stroke="none" />
  </g>
</svg>