<?xml version="1.0" encoding="utf-8"?>
<svg version="1.1" xmlns:xlink="http://www.w3.org/1999/xlink" width="593px" height="611px" xmlns="http://www.w3.org/2000/svg">
  <g transform="matrix(1 0 0 1 -1065 -420 )">
    <path d="M 1065 420  L 1658 420  L 1658 1031  L 1065 1031  L 1065 420  " fill-rule="nonzero" fill="#cccccc" stroke="none" />
    <path d="M 1107 462  L 1616 462  L 1616 989  L 1107 989  L 1107 462  " fill-rule="nonzero" fill="#ffffff" stroke="none" />
    <path d="M 1417.835 600.6  C 1392.929 600.6  1373.36 581.031  1373.36 556.125  C 1373.36 531.219  1392.929 511.65  1417.835 511.65  C 1442.741 511.65  1462.31 531.219  1462.31 556.125  C 1462.31 581.031  1442.741 600.6  1417.835 600.6  " fill-rule="nonzero" fill="#cccccc" stroke="none" />
    <path d="M 1122 974  L 1122 700.65  L 1241.75 576.4  L 1409.4 675.8  L 1505.2 650.95  L 1601 675.8  L 1601 974  L 1122 974  " fill-rule="nonzero" fill="#169bd5" stroke="none" />
  </g>
</svg>