<?xml version="1.0" encoding="utf-8"?>
<svg version="1.1" xmlns:xlink="http://www.w3.org/1999/xlink" width="9px" height="14px" xmlns="http://www.w3.org/2000/svg">
  <g transform="matrix(1 0 0 1 -654 -308 )">
    <path d="M 8.84536082474227 6.67735470941884  C 8.94845360824742 6.77087508350033  9 6.87842351369405  9 7  C 9 7.12157648630594  8.94845360824742 7.22912491649967  8.84536082474227 7.32264529058116  L 1.63917525773196 13.8597194388778  C 1.5360824742268 13.9532398129593  1.41752577319588 14  1.28350515463918 14  C 1.14948453608247 14  1.03092783505155 13.9532398129593  0.927835051546392 13.8597194388778  L 0.154639175257732 13.1583166332665  C 0.0515463917525774 13.064796259185  0 12.9572478289913  0 12.8356713426854  C 0 12.7140948563794  0.0515463917525774 12.6065464261857  0.154639175257732 12.5130260521042  L 6.2319587628866 7  L 0.154639175257732 1.48697394789579  C 0.0515463917525774 1.39345357381429  0 1.28590514362057  0 1.16432865731463  C 0 1.04275217100868  0.0515463917525774 0.935203740814962  0.154639175257732 0.841683366733466  L 0.927835051546392 0.140280561122245  C 1.03092783505155 0.0467601870407477  1.14948453608247 0  1.28350515463918 0  C 1.41752577319588 0  1.5360824742268 0.0467601870407477  1.63917525773196 0.140280561122245  L 8.84536082474227 6.67735470941884  Z " fill-rule="nonzero" fill="#000000" stroke="none" transform="matrix(1 0 0 1 654 308 )" />
  </g>
</svg>