<svg t="1566355688394" class="icon" viewBox="0 0 1024 1024" version="1.1" xmlns="http://www.w3.org/2000/svg" p-id="3556" width="28" height="28"><path d="M174.08 491.52c-12.288 0-20.48 8.192-20.48 20.48s8.192 20.48 20.48 20.48h124.928c12.288 0 20.48-8.192 20.48-20.48v-2.048V382.976c0-12.288-8.192-20.48-20.48-20.48s-20.48 8.192-20.48 20.48V491.52H174.08z" p-id="3557"></path><path d="M851.968 106.496H497.664c-57.344 0-102.4 45.056-102.4 102.4v49.152H266.24c-36.864 0-71.68 20.48-90.112 53.248l-106.496 192.512v270.336c0 22.528 16.384 38.912 34.816 38.912h26.624c4.096 59.392 53.248 106.496 114.688 106.496 61.44 0 110.592-47.104 114.688-106.496H634.88c4.096 59.392 53.248 106.496 114.688 106.496 61.44 0 110.592-47.104 114.688-108.544 51.2-6.144 90.112-49.152 90.112-100.352V208.896c0-57.344-45.056-102.4-102.4-102.4zM245.76 876.544c-40.96 0-73.728-32.768-73.728-73.728s32.768-73.728 73.728-73.728 73.728 32.768 73.728 73.728-32.768 73.728-73.728 73.728z m147.456-106.496h-36.864c-14.336-47.104-57.344-81.92-110.592-81.92-51.2 0-96.256 34.816-110.592 81.92H110.592V512l100.352-182.272c10.24-20.48 30.72-30.72 53.248-30.72h129.024v471.04z m356.352 106.496c-40.96 0-73.728-32.768-73.728-73.728s32.768-73.728 73.728-73.728 73.728 32.768 73.728 73.728-32.768 73.728-73.728 73.728z m163.84-167.936c0 30.72-22.528 57.344-53.248 61.44-14.336-47.104-57.344-81.92-110.592-81.92-53.248 0-96.256 34.816-110.592 81.92h-204.8V208.896c0-34.816 26.624-61.44 61.44-61.44h356.352c34.816 0 61.44 26.624 61.44 61.44v499.712z" p-id="3558"></path></svg>