<svg t="1566355671281" class="icon" viewBox="0 0 1024 1024" version="1.1" xmlns="http://www.w3.org/2000/svg" p-id="2785" width="28" height="28"><path d="M829.473073 154.436348h-634.930797c-40.804335 0-74.176396 38.143739-74.176396 84.768639v545.599236c0 46.614667 33.372062 84.758406 74.176396 84.758406h634.930797c40.787962 0 74.160024-38.143739 74.160024-84.758406V239.204987c0.099261-46.623877-33.372062-84.768639-74.160024-84.768639z m0 39.757493c18.989493 0 35.051307 20.602224 35.051307 45.011146v74.176396H629.507786V194.193841h199.965287z m-239.156891 0v352.891235l-60.824297-30.795376-17.492397-8.870019-17.476023 8.870019-60.823274 30.795376V194.193841h156.615991z m-395.773906 0h199.948915v119.187542H159.474596v-74.176396c0-24.408923 16.07921-45.011146 35.06768-45.011146z m634.930797 635.611295h-634.930797c-18.989493 0-35.068703-20.602224-35.068703-45.001937V353.054965h235.016595v198.61043c0 21.839401 17.674545 39.764656 39.207977 39.764655l78.30032-39.764655 78.316693 39.764655c21.516036 0 39.191604-17.926278 39.191604-39.764655V353.054965H864.523357v431.749258c0.001023 24.399713-16.060791 45.000913-35.050284 45.000913z" p-id="2786"></path></svg>