<?xml version="1.0" encoding="utf-8"?>
<svg version="1.1" xmlns:xlink="http://www.w3.org/1999/xlink" width="25px" height="23px" xmlns="http://www.w3.org/2000/svg">
  <g transform="matrix(1 0 0 1 -612 -165 )">
    <path d="M 18.1640625 20.1884057971014  L 17.0823317307692 14.0869565217391  L 21.6796875 9.78260869565217  L 15.3395432692308 8.88405797101449  L 12.5 3.34782608695652  L 9.66045673076923 8.88405797101449  L 3.3203125 9.78260869565217  L 7.91766826923077 14.0869565217391  L 6.82091346153846 20.1884057971014  L 12.5 17.304347826087  L 18.1640625 20.1884057971014  Z M 24.1586538461538 8.2463768115942  C 24.7195512820513 8.33333333333333  25 8.55555555555556  25 8.91304347826087  C 25 9.1256038647343  24.8697916666667 9.35748792270531  24.609375 9.60869565217391  L 19.1556490384615 14.7391304347826  L 20.4477163461538 21.9855072463768  C 20.4577323717949 22.0531400966184  20.4627403846154 22.1497584541063  20.4627403846154 22.2753623188406  C 20.4627403846154 22.7584541062802  20.2574118589744 23  19.8467548076923 23  C 19.6564503205128 23  19.4561298076923 22.9420289855072  19.2457932692308 22.8260869565217  L 12.5 19.4057971014493  L 5.75420673076923 22.8260869565217  C 5.53385416666667 22.9420289855072  5.33353365384615 23  5.15324519230769 23  C 4.94290865384615 23  4.78515625 22.9299516908213  4.67998798076923 22.7898550724638  C 4.57481971153846 22.6497584541063  4.52223557692308 22.4782608695652  4.52223557692308 22.2753623188406  C 4.52223557692308 22.2173913043478  4.5322516025641 22.1207729468599  4.55228365384615 21.9855072463768  L 5.84435096153846 14.7391304347826  L 0.375600961538462 9.60869565217391  C 0.125200320512821 9.34782608695652  0 9.11594202898551  0 8.91304347826087  C 0 8.55555555555556  0.280448717948718 8.33333333333333  0.841346153846154 8.2463768115942  L 8.38341346153846 7.18840579710145  L 11.7638221153846 0.594202898550724  C 11.9541266025641 0.19806763285024  12.1995192307692 0  12.5 0  C 12.8004807692308 0  13.0458733974359 0.19806763285024  13.2361778846154 0.594202898550724  L 16.6165865384615 7.18840579710145  L 24.1586538461538 8.2463768115942  Z " fill-rule="nonzero" fill="#000000" stroke="none" transform="matrix(1 0 0 1 612 165 )" />
  </g>
</svg>