<?xml version="1.0" encoding="utf-8"?>
<svg version="1.1" xmlns:xlink="http://www.w3.org/1999/xlink" width="28px" height="20px" xmlns="http://www.w3.org/2000/svg">
  <g transform="matrix(1 0 0 1 -529 -776 )">
    <path d="M 10.1298076923077 16.9034090909091  C 10.5560897435897 17.2632575757576  10.7692307692308 17.6893939393939  10.7692307692308 18.1818181818182  C 10.7692307692308 18.6742424242424  10.5560897435897 19.1003787878788  10.1298076923077 19.4602272727273  C 9.70352564102564 19.8200757575758  9.19871794871795 20  8.61538461538462 20  C 8.03205128205128 20  7.52724358974359 19.8200757575758  7.10096153846154 19.4602272727273  C 6.67467948717949 19.1003787878788  6.46153846153846 18.6742424242424  6.46153846153846 18.1818181818182  C 6.46153846153846 17.6893939393939  6.67467948717949 17.2632575757576  7.10096153846154 16.9034090909091  C 7.52724358974359 16.5435606060606  8.03205128205128 16.3636363636364  8.61538461538462 16.3636363636364  C 9.19871794871795 16.3636363636364  9.70352564102564 16.5435606060606  10.1298076923077 16.9034090909091  Z M 25.2067307692308 16.9034090909091  C 25.6330128205128 17.2632575757576  25.8461538461538 17.6893939393939  25.8461538461538 18.1818181818182  C 25.8461538461538 18.6742424242424  25.6330128205128 19.1003787878788  25.2067307692308 19.4602272727273  C 24.7804487179487 19.8200757575758  24.275641025641 20  23.6923076923077 20  C 23.1089743589744 20  22.6041666666667 19.8200757575758  22.1778846153846 19.4602272727273  C 21.7516025641026 19.1003787878788  21.5384615384615 18.6742424242424  21.5384615384615 18.1818181818182  C 21.5384615384615 17.6893939393939  21.7516025641026 17.2632575757576  22.1778846153846 16.9034090909091  C 22.6041666666667 16.5435606060606  23.1089743589744 16.3636363636364  23.6923076923077 16.3636363636364  C 24.275641025641 16.3636363636364  24.7804487179487 16.5435606060606  25.2067307692308 16.9034090909091  Z M 27.6802884615385 2.08806818181818  C 27.8934294871795 2.26799242424242  28 2.4810606060606  28 2.72727272727273  L 28 10  C 28 10.2272727272727  27.9074519230769 10.4285037878788  27.7223557692308 10.6036931818182  C 27.5372596153846 10.7788825757576  27.3100961538462 10.8806818181818  27.0408653846154 10.9090909090909  L 9.47355769230769 12.6420454545455  C 9.61939102564103 13.2102272727273  9.69230769230769 13.5416666666667  9.69230769230769 13.6363636363636  C 9.69230769230769 13.7878787878788  9.55769230769231 14.0909090909091  9.28846153846154 14.5454545454545  L 24.7692307692308 14.5454545454545  C 25.0608974358974 14.5454545454545  25.3133012820513 14.6354166666667  25.5264423076923 14.8153409090909  C 25.7395833333333 14.9952651515152  25.8461538461538 15.2083333333333  25.8461538461538 15.4545454545455  C 25.8461538461538 15.7007575757576  25.7395833333333 15.9138257575758  25.5264423076923 16.09375  C 25.3133012820513 16.2736742424242  25.0608974358974 16.3636363636364  24.7692307692308 16  L 7.53846153846154 16  C 7.24679487179487 16.3636363636364  6.99439102564103 16.2736742424242  6.78125 16.09375  C 6.56810897435897 15.9138257575758  6.46153846153846 15.7007575757576  6.46153846153846 15.4545454545455  C 6.46153846153846 15.3503787878788  6.50641025641026 15.2012310606061  6.59615384615385 15.0071022727273  C 6.68589743589744 14.8129734848485  6.77564102564103 14.6425189393939  6.86538461538461 14.4957386363636  C 6.95512820512821 14.3489583333333  7.07572115384615 14.1595643939394  7.22716346153846 13.9275568181818  C 7.37860576923077 13.6955492424242  7.46554487179487 13.5558712121212  7.48798076923077 13.5085227272727  L 4.50961538461539 1.81818181818182  L 1.07692307692308 1.81818181818182  C 0.78525641025641 1.81818181818182  0.532852564102564 1.7282196969697  0.319711538461538 1.54829545454545  C 0.106570512820513 1.36837121212121  0 1.15530303030303  0 0.909090909090908  C 0 0.662878787878787  0.106570512820513 0.449810606060603  0.319711538461538 0.269886363636365  C 0.532852564102564 0.0899621212121193  0.78525641025641 0  1.07692307692308 0  L 5.38461538461539 0  C 5.56410256410256 0  5.72395833333333 0.0307765151515138  5.86418269230769 0.0923295454545459  C 6.00440705128205 0.153882575757576  6.11378205128205 0.227272727272727  6.19230769230769 0.3125  C 6.27083333333333 0.397727272727273  6.34375 0.513731060606057  6.41105769230769 0.660511363636365  C 6.47836538461539 0.807291666666665  6.52323717948718 0.930397727272727  6.54567307692308 1.02982954545455  C 6.56810897435898 1.12926136363636  6.59895833333333 1.26893939393939  6.63822115384615 1.44886363636364  C 6.67748397435898 1.62878787878788  6.70272435897436 1.75189393939394  6.71394230769231 2  L 26.9230769230769 2  C 27.2147435897436 1.81818181818182  27.4671474358974 1.90814393939394  27.6802884615385 2.08806818181818  Z " fill-rule="nonzero" fill="#000000" stroke="none" transform="matrix(1 0 0 1 529 776 )" />
  </g>
</svg>