<?xml version="1.0" encoding="utf-8"?>
<svg version="1.1" xmlns:xlink="http://www.w3.org/1999/xlink" width="29px" height="21px" xmlns="http://www.w3.org/2000/svg">
  <g transform="matrix(1 0 0 1 -642 -165 )">
    <path d="M 10.4915865384615 17.7485795454545  C 10.933092948718 18.1264204545455  11.1538461538462 18.5738636363636  11.1538461538462 19.0909090909091  C 11.1538461538462 19.6079545454545  10.933092948718 20.0553977272727  10.4915865384615 20.4332386363636  C 10.0500801282051 20.8110795454545  9.52724358974359 21  8.92307692307692 21  C 8.31891025641026 21  7.79607371794872 20.8110795454545  7.35456730769231 20.4332386363636  C 6.9130608974359 20.0553977272727  6.69230769230769 19.6079545454545  6.69230769230769 19.0909090909091  C 6.69230769230769 18.5738636363636  6.9130608974359 18.1264204545455  7.35456730769231 17.7485795454545  C 7.79607371794872 17.3707386363636  8.31891025641026 17.1818181818182  8.92307692307692 17.1818181818182  C 9.52724358974359 17.1818181818182  10.0500801282051 17.3707386363636  10.4915865384615 17.7485795454545  Z M 26.1069711538462 17.7485795454545  C 26.5484775641026 18.1264204545455  26.7692307692308 18.5738636363636  26.7692307692308 19.0909090909091  C 26.7692307692308 19.6079545454545  26.5484775641026 20.0553977272727  26.1069711538462 20.4332386363636  C 25.6654647435897 20.8110795454545  25.1426282051282 21  24.5384615384615 21  C 23.9342948717949 21  23.4114583333333 20.8110795454545  22.9699519230769 20.4332386363636  C 22.5284455128205 20.0553977272727  22.3076923076923 19.6079545454545  22.3076923076923 19.0909090909091  C 22.3076923076923 18.5738636363636  22.5284455128205 18.1264204545455  22.9699519230769 17.7485795454545  C 23.4114583333333 17.3707386363636  23.9342948717949 17.1818181818182  24.5384615384615 17.1818181818182  C 25.1426282051282 17.1818181818182  25.6654647435897 17.3707386363636  26.1069711538462 17.7485795454545  Z M 28.6688701923077 2.19247159090909  C 28.8896233974359 2.38139204545454  29 2.60511363636363  29 2.86363636363636  L 29 10.5  C 29 10.7386363636364  28.9041466346154 10.9499289772727  28.7124399038462 11.1338778409091  C 28.5207331730769 11.3178267045455  28.2854567307692 11.4247159090909  28.0066105769231 11.4545454545455  L 9.81189903846154 13.2741477272727  C 9.96294070512821 13.8707386363636  10.0384615384615 14.21875  10.0384615384615 14.3181818181818  C 10.0384615384615 14.4772727272727  9.89903846153846 14.7954545454545  9.62019230769231 15  L 25.6538461538462 15  C 25.9559294871795 15.2727272727273  26.2173477564103 15.3671875  26.4381009615385 15.5561079545455  C 26.6588541666667 15.7450284090909  26.7692307692308 15.96875  26.7692307692308 16.2272727272727  C 26.7692307692308 16.4857954545455  26.6588541666667 16.7095170454545  26.4381009615385 16.8984375  C 26.2173477564103 17.0873579545455  25.9559294871795 17.1818181818182  25.6538461538462 17  L 7.80769230769231 17  C 7.50560897435898 17.1818181818182  7.24419070512821 17.0873579545455  7.0234375 16.8984375  C 6.80268429487179 16.7095170454545  6.69230769230769 16.4857954545455  6.69230769230769 16.2272727272727  C 6.69230769230769 16.1178977272727  6.73878205128205 15.9612926136364  6.83173076923077 15.7574573863636  C 6.92467948717949 15.5536221590909  7.01762820512821 15.3746448863636  7.11057692307692 15.2205255681818  C 7.20352564102564 15.06640625  7.32842548076923 14.8675426136364  7.48527644230769 14.6239346590909  C 7.64212740384615 14.3803267045454  7.73217147435898 14.2336647727273  7.75540865384615 14.1839488636364  L 4.67067307692308 1.90909090909091  L 1.11538461538462 1.90909090909091  C 0.813301282051282 1.90909090909091  0.551883012820513 1.81463068181818  0.331129807692308 1.62571022727273  C 0.110376602564103 1.43678977272727  0 1.21306818181818  0 0.954545454545454  C 0 0.696022727272726  0.110376602564103 0.472301136363633  0.331129807692308 0.283380681818183  C 0.551883012820513 0.0944602272727253  0.813301282051282 0  1.11538461538462 0  L 5.57692307692308 0  C 5.76282051282051 0  5.92838541666667 0.0323153409090895  6.07361778846154 0.0969460227272732  C 6.21885016025641 0.161576704545454  6.33213141025641 0.238636363636363  6.41346153846154 0.328125  C 6.49479166666667 0.417613636363637  6.5703125 0.53941761363636  6.64002403846154 0.693536931818183  C 6.70973557692308 0.847656249999998  6.75620993589744 0.976917613636363  6.77944711538462 1.08132102272727  C 6.8026842948718 1.18572443181818  6.83463541666667 1.33238636363636  6.87530048076923 1.52130681818182  C 6.9159655448718 1.71022727272727  6.94210737179487 1.83948863636363  6.95372596153846 2  L 27.8846153846154 2  C 28.1866987179487 1.90909090909091  28.4481169871795 2.00355113636363  28.6688701923077 2.19247159090909  Z " fill-rule="nonzero" fill="#000000" stroke="none" transform="matrix(1 0 0 1 642 165 )" />
  </g>
</svg>