<?xml version="1.0" encoding="utf-8"?>
<svg version="1.1" xmlns:xlink="http://www.w3.org/1999/xlink" width="89px" height="83px" xmlns="http://www.w3.org/2000/svg">
  <g transform="matrix(1 0 0 1 -323 -502 )">
    <path d="M 323 502  L 412 502  L 412 585  L 323 585  L 323 502  " fill-rule="nonzero" fill="#cccccc" stroke="none" />
    <path d="M 329 508  L 406 508  L 406 579  L 329 579  L 329 508  " fill-rule="nonzero" fill="#ffffff" stroke="none" />
    <path d="M 375.505 526.9  C 372.019 526.9  369.28 524.161  369.28 520.675  C 369.28 517.189  372.019 514.45  375.505 514.45  C 378.991 514.45  381.73 517.189  381.73 520.675  C 381.73 524.161  378.991 526.9  375.505 526.9  " fill-rule="nonzero" fill="#cccccc" stroke="none" />
    <path d="M 331 577  L 331 540.15  L 349.25 523.4  L 374.8 539.510112359551  L 389.4 533.45  L 404 539.510112359551  L 404 577  L 331 577  " fill-rule="nonzero" fill="#169bd5" stroke="none" />
  </g>
</svg>