<?xml version="1.0" encoding="utf-8"?>
<svg version="1.1" xmlns:xlink="http://www.w3.org/1999/xlink" width="375px" height="222px" xmlns="http://www.w3.org/2000/svg">
  <g transform="matrix(1 0 0 1 -302 -153 )">
    <path d="M 302 153  L 677 153  L 677 375  L 302 375  L 302 153  " fill-rule="nonzero" fill="#cccccc" stroke="none" />
    <path d="M 318 169  L 661 169  L 661 359  L 318 359  L 318 169  " fill-rule="nonzero" fill="#ffffff" stroke="none" />
    <path d="M 513.65 219.6  C 504.326 219.6  497 212.274  497 202.95  C 497 193.626  504.326 186.3  513.65 186.3  C 522.974 186.3  530.3 193.626  530.3 202.95  C 530.3 212.274  522.974 219.6  513.65 219.6  " fill-rule="nonzero" fill="#cccccc" stroke="none" />
    <path d="M 324 354  L 324 255.55  L 407 210.8  L 523.2 290.4192  L 589.6 237.65  L 656 290.4192  L 656 354  L 324 354  " fill-rule="nonzero" fill="#169bd5" stroke="none" />
  </g>
</svg>