<?xml version="1.0" encoding="utf-8"?>
<svg version="1.1" xmlns:xlink="http://www.w3.org/1999/xlink" width="375px" height="168px" xmlns="http://www.w3.org/2000/svg">
  <g transform="matrix(1 0 0 1 -302 -597 )">
    <path d="M 302 597  L 677 597  L 677 765  L 302 765  L 302 597  " fill-rule="nonzero" fill="#cccccc" stroke="none" />
    <path d="M 314 609  L 665 609  L 665 753  L 314 753  L 314 609  " fill-rule="nonzero" fill="#ffffff" stroke="none" />
    <path d="M 509.6 647.4  C 502.544 647.4  497 641.856  497 634.8  C 497 627.744  502.544 622.2  509.6 622.2  C 516.656 622.2  522.2 627.744  522.2 634.8  C 522.2 641.856  516.656 647.4  509.6 647.4  " fill-rule="nonzero" fill="#cccccc" stroke="none" />
    <path d="M 318 749  L 318 674.2  L 403.75 640.2  L 523.8 712.4432  L 592.4 660.6  L 661 712.4432  L 661 749  L 318 749  " fill-rule="nonzero" fill="#169bd5" stroke="none" />
  </g>
</svg>