<?xml version="1.0" encoding="utf-8"?>
<svg version="1.1" xmlns:xlink="http://www.w3.org/1999/xlink" width="28px" height="17px" xmlns="http://www.w3.org/2000/svg">
  <g transform="matrix(1 0 0 1 -1456 -594 )">
    <path d="M 13.0582959641256 12.75  L 13.9372197309417 12.75  L 15.7578475336323 11.3494318181818  L 13.372197309417 9.51420454545454  L 11.5515695067265 10.9147727272727  L 11.5515695067265 11.5909090909091  L 13.0582959641256 11.5909090909091  L 13.0582959641256 12.75  Z M 20.8273542600897 4.45525568181818  C 21.0052316890882 4.31841856060606  21.0104633781764 4.18560606060606  20.8430493273543 4.05681818181818  C 20.6756352765321 3.9280303030303  20.5029895366218 3.93205492424242  20.3251121076233 4.06889204545455  L 14.8318385650224 8.29474431818182  C 14.6539611360239 8.43158143939394  14.6487294469357 8.56439393939394  14.8161434977578 8.69318181818182  C 14.98355754858 8.8219696969697  15.1562032884903 8.81794507575757  15.3340807174888 8.68110795454546  L 20.8273542600897 4.45525568181818  Z M 21.7847533632287 10.8785511363636  C 21.9940209267564 10.9429450757576  22.0986547085202 11.0596590909091  22.0986547085202 11.2286931818182  L 22.0986547085202 13.5227272727273  C 22.0986547085202 14.4805871212121  21.656576980568 15.2995975378788  20.7724215246637 15.9797585227273  C 19.8882660687593 16.6599195075758  18.8236173393124 17  17.5784753363229 17  L 4.52017937219731 17  C 3.27503736920777 17  2.21038863976084 16.6599195075758  1.3262331838565 15.9797585227273  C 0.442077727952167 15.2995975378788  0 14.4805871212121  0 13.5227272727273  L 0 3.47727272727273  C 0 2.51941287878788  0.442077727952167 1.70040246212121  1.3262331838565 1.02024147727273  C 2.21038863976084 0.340080492424241  3.27503736920777 0  4.52017937219731 0  L 17.5784753363229 0  C 18.237668161435 0  18.8497757847534 0.100615530303029  19.414798206278 0.30184659090909  C 19.5717488789238 0.358191287878787  19.6659192825112 0.450757575757575  19.6973094170404 0.579545454545454  C 19.7286995515695 0.716382575757575  19.6816143497758 0.83309659090909  19.5560538116592 0.9296875  L 18.7869955156951 1.52130681818182  C 18.6405082212257 1.63399621212121  18.4730941704036 1.66619318181818  18.2847533632287 1.61789772727273  C 18.0440956651719 1.56960227272727  17.8086696562033 1.54545454545455  17.5784753363229 1.54545454545455  L 4.52017937219731 1.54545454545455  C 3.82959641255605 1.54545454545455  3.23841554559043 1.73461174242424  2.74663677130045 2.11292613636364  C 2.25485799701046 2.49124053030303  2.00896860986547 2.94602272727273  2 3.47727272727273  L 2 13.5227272727273  C 2.00896860986547 14.0539772727273  2.25485799701046 14.508759469697  2.74663677130045 14.8870738636364  C 3.23841554559043 15.2653882575758  3.82959641255605 15.4545454545455  4.52017937219731 15.4545454545455  L 17.5784753363229 15.4545454545455  C 18.2690582959641 15.4545454545455  18.8602391629297 15.2653882575758  19.3520179372197 14.8870738636364  C 19.8437967115097 14.508759469697  20.0896860986547 14.0539772727273  20.0896860986547 13.5227272727273  L 20.0896860986547 12.0014204545455  C 20.0896860986547 11.8967803030303  20.1367713004484 11.8082386363636  20.2309417040359 11.7357954545455  L 21.2354260089686 10.9630681818182  C 21.3923766816143 10.8423295454545  21.575485799701 10.8141571969697  21.7847533632287 10.8785511363636  Z M 10.0448430493274 10.4318181818182  L 20.5919282511211 2.31818181818182  L 25.1121076233184 5.79545454545455  L 14.5650224215247 13.9090909090909  L 10.0448430493274 13.9090909090909  L 10.0448430493274 10.4318181818182  Z M 28 3.09090909090909  C 28 3.41287878787879  27.8535127055306 3.68655303030303  27.5605381165919 3.91193181818182  L 26.1165919282511 5.02272727272727  L 21.5964125560538 1.54545454545455  L 23.0403587443946 0.43465909090909  C 23.3333333333333 0.209280303030301  23.6890881913303 0.0965909090909099  24.1076233183857 0.0965909090909099  C 24.526158445441 0.0965909090909099  24.881913303438 0.209280303030301  25.1748878923767 0.43465909090909  L 27.5605381165919 2.26988636363636  C 27.8535127055306 2.49526515151515  28 2.76893939393939  28 3.09090909090909  Z " fill-rule="nonzero" fill="#000000" stroke="none" transform="matrix(1 0 0 1 1456 594 )" />
  </g>
</svg>