<?xml version="1.0" encoding="utf-8"?>
<svg version="1.1" xmlns:xlink="http://www.w3.org/1999/xlink" width="36px" height="18px" xmlns="http://www.w3.org/2000/svg">
  <g transform="matrix(1 0 0 1 -1230 -594 )">
    <path d="M 0.896484375 12.49453125  C 0.298828125 11.38359375  0 10.21875  0 9  C 0 7.78125  0.298828125 6.61640625  0.896484375 5.50546875  C 1.494140625 4.39453125  2.2939453125 3.43828125  3.2958984375 2.63671875  C 4.2978515625 1.83515625  5.4931640625 1.1953125  6.8818359375 0.717187499999999  C 8.2705078125 0.2390625  9.7265625 0  11.25 0  L 24.75 0  C 26.2734375 0  27.7294921875 0.2390625  29.1181640625 0.717187499999999  C 30.5068359375 1.1953125  31.7021484375 1.83515625  32.7041015625 2.63671875  C 33.7060546875 3.43828125  34.505859375 4.39453125  35.103515625 5.50546875  C 35.701171875 6.61640625  36 7.78125  36 9  C 36 10.21875  35.701171875 11.38359375  35.103515625 12.49453125  C 34.505859375 13.60546875  33.7060546875 14.56171875  32.7041015625 15.36328125  C 31.7021484375 16.16484375  30.5068359375 16.8046875  29.1181640625 17.2828125  C 27.7294921875 17.7609375  26.2734375 18  24.75 18  L 11.25 18  C 9.7265625 18  8.2705078125 17.7609375  6.8818359375 17.2828125  C 5.4931640625 16.8046875  4.2978515625 16.16484375  3.2958984375 15.36328125  C 2.2939453125 14.56171875  1.494140625 13.60546875  0.896484375 12.49453125  Z M 21.2607421875 15.63046875  C 22.3681640625 16.01015625  23.53125 16.2  24.75 16.2  C 25.96875 16.2  27.1318359375 16.01015625  28.2392578125 15.63046875  C 29.3466796875 15.25078125  30.3046875 14.7375  31.11328125 14.090625  C 31.921875 13.44375  32.5634765625 12.67734375  33.0380859375 11.79140625  C 33.5126953125 10.90546875  33.75 9.975  33.75 9  C 33.75 8.025  33.5126953125 7.09453125  33.0380859375 6.20859375  C 32.5634765625 5.32265625  31.921875 4.55625  31.11328125 3.909375  C 30.3046875 3.2625  29.3466796875 2.74921875  28.2392578125 2.36953125  C 27.1318359375 1.98984375  25.96875 1.8  24.75 1.8  C 23.53125 1.8  22.3681640625 1.98984375  21.2607421875 2.36953125  C 20.1533203125 2.74921875  19.1953125 3.2625  18.38671875 3.909375  C 17.578125 4.55625  16.9365234375 5.32265625  16.4619140625 6.20859375  C 15.9873046875 7.09453125  15.75 8.025  15.75 9  C 15.75 9.975  15.9873046875 10.90546875  16.4619140625 11.79140625  C 16.9365234375 12.67734375  17.578125 13.44375  18.38671875 14.090625  C 19.1953125 14.7375  20.1533203125 15.25078125  21.2607421875 15.63046875  Z " fill-rule="nonzero" fill="#000000" stroke="none" transform="matrix(1 0 0 1 1230 594 )" />
  </g>
</svg>