<?xml version="1.0" encoding="utf-8"?>
<svg version="1.1" xmlns:xlink="http://www.w3.org/1999/xlink" width="14px" height="8px" xmlns="http://www.w3.org/2000/svg">
  <g transform="matrix(1 0 0 1 -315 -272 )">
    <path d="M 13.7470967741935 1.1043771043771  C 13.9156989247312 1.2300785634119  14 1.38271604938272  14 1.56228956228956  C 14 1.74186307519641  13.9156989247312 1.89450056116723  13.7470967741935 2.02020202020202  L 7.20774193548387 6.8956228956229  L 5.97935483870968 7.81144781144781  C 5.81075268817204 7.9371492704826  5.60602150537635 8  5.36516129032258 8  C 5.12430107526882 8  4.91956989247312 7.9371492704826  4.75096774193548 7.81144781144781  L 3.52258064516129 6.8956228956229  L 0.252903225806452 4.45791245791246  C 0.0843010752688173 4.33221099887766  0 4.17957351290685  0 4  C 0 3.82042648709315  0.0843010752688173 3.66778900112233  0.252903225806452 3.54208754208754  L 1.48129032258065 2.62626262626263  C 1.64989247311828 2.50056116722783  1.85462365591398 2.43771043771044  2.09548387096774 2.43771043771044  C 2.33634408602151 2.43771043771044  2.5410752688172 2.50056116722783  2.70967741935484 2.62626262626263  L 5.36516129032258 4.61279461279461  L 11.2903225806452 0.188552188552189  C 11.4589247311828 0.0628507295173959  11.6636559139785 0  11.9045161290323 0  C 12.145376344086 0  12.3501075268817 0.0628507295173959  12.5187096774194 0.188552188552189  L 13.7470967741935 1.1043771043771  Z " fill-rule="nonzero" fill="#000000" stroke="none" transform="matrix(1 0 0 1 315 272 )" />
  </g>
</svg>