<?xml version="1.0" encoding="utf-8"?>
<svg version="1.1" xmlns:xlink="http://www.w3.org/1999/xlink" width="103px" height="95px" xmlns="http://www.w3.org/2000/svg">
  <g transform="matrix(1 0 0 1 -313 -325 )">
    <path d="M 313 325  L 416 325  L 416 420  L 313 420  L 313 325  " fill-rule="nonzero" fill="#cccccc" stroke="none" />
    <path d="M 320 332  L 409 332  L 409 413  L 320 413  L 320 332  " fill-rule="nonzero" fill="#ffffff" stroke="none" />
    <path d="M 373.685 353.5  C 369.695 353.5  366.56 350.365  366.56 346.375  C 366.56 342.385  369.695 339.25  373.685 339.25  C 377.675 339.25  380.81 342.385  380.81 346.375  C 380.81 350.365  377.675 353.5  373.685 353.5  " fill-rule="nonzero" fill="#cccccc" stroke="none" />
    <path d="M 323 411  L 323 369.2  L 344 350.2  L 373.4 368.941747572816  L 390.2 361.6  L 407 368.941747572816  L 407 411  L 323 411  " fill-rule="nonzero" fill="#169bd5" stroke="none" />
  </g>
</svg>