<?xml version="1.0" encoding="utf-8"?>
<svg version="1.1" xmlns:xlink="http://www.w3.org/1999/xlink" width="22px" height="14px" xmlns="http://www.w3.org/2000/svg">
  <g transform="matrix(1 0 0 1 -608 -174 )">
    <path d="M 7.95913461538461 11.8323863636364  C 8.29407051282051 12.0842803030303  8.46153846153846 12.3825757575758  8.46153846153846 12.7272727272727  C 8.46153846153846 13.0719696969697  8.29407051282051 13.3702651515152  7.95913461538461 13.6221590909091  C 7.62419871794872 13.874053030303  7.2275641025641 14  6.76923076923077 14  C 6.31089743589744 14  5.91426282051282 13.874053030303  5.57932692307692 13.6221590909091  C 5.24439102564103 13.3702651515152  5.07692307692308 13.0719696969697  5.07692307692308 12.7272727272727  C 5.07692307692308 12.3825757575758  5.24439102564103 12.0842803030303  5.57932692307692 11.8323863636364  C 5.91426282051282 11.5804924242424  6.31089743589744 11.4545454545455  6.76923076923077 11.4545454545455  C 7.2275641025641 11.4545454545455  7.62419871794872 11.5804924242424  7.95913461538461 11.8323863636364  Z M 19.8052884615385 11.8323863636364  C 20.1402243589744 12.0842803030303  20.3076923076923 12.3825757575758  20.3076923076923 12.7272727272727  C 20.3076923076923 13.0719696969697  20.1402243589744 13.3702651515152  19.8052884615385 13.6221590909091  C 19.4703525641026 13.874053030303  19.0737179487179 14  18.6153846153846 14  C 18.1570512820513 14  17.7604166666667 13.874053030303  17.4254807692308 13.6221590909091  C 17.0905448717949 13.3702651515152  16.9230769230769 13.0719696969697  16.9230769230769 12.7272727272727  C 16.9230769230769 12.3825757575758  17.0905448717949 12.0842803030303  17.4254807692308 11.8323863636364  C 17.7604166666667 11.5804924242424  18.1570512820513 11.4545454545455  18.6153846153846 11.4545454545455  C 19.0737179487179 11.4545454545455  19.4703525641026 11.5804924242424  19.8052884615385 11.8323863636364  Z M 21.7487980769231 1.46164772727273  C 21.916266025641 1.5875946969697  22 1.73674242424242  22 1.90909090909091  L 22 7  C 22 7.15909090909091  21.9272836538462 7.29995265151515  21.7818509615385 7.42258522727273  C 21.6364182692308 7.5452178030303  21.4579326923077 7.61647727272727  21.2463942307692 7.63636363636364  L 7.44350961538461 8.84943181818182  C 7.55809294871795 9.24715909090909  7.61538461538461 9.47916666666667  7.61538461538461 9.54545454545455  C 7.61538461538461 9.65151515151515  7.50961538461539 9.86363636363636  7.29807692307692 10  L 19.4615384615385 10  C 19.6907051282051 10.1818181818182  19.8890224358974 10.2447916666667  20.0564903846154 10.3707386363636  C 20.2239583333333 10.4966856060606  20.3076923076923 10.6458333333333  20.3076923076923 10.8181818181818  C 20.3076923076923 10.9905303030303  20.2239583333333 11.139678030303  20.0564903846154 11.265625  C 19.8890224358974 11.391571969697  19.6907051282051 11.4545454545455  19.4615384615385 11.4545454545455  L 5.92307692307692 11.4545454545455  C 5.69391025641026 11.4545454545455  5.49559294871795 11.391571969697  5.328125 11.265625  C 5.16065705128205 11.139678030303  5.07692307692308 10.9905303030303  5.07692307692308 10.8181818181818  C 5.07692307692308 10.7452651515152  5.11217948717949 10.6408617424242  5.18269230769231 10.5049715909091  C 5.25320512820513 10.3690814393939  5.32371794871795 10.2497632575758  5.39423076923077 10.1470170454545  C 5.46474358974359 10.0442708333333  5.55949519230769 9.91169507575758  5.67848557692308 9.74928977272727  C 5.79747596153846 9.58688446969697  5.86578525641026 9.48910984848485  5.88341346153846 9.45596590909091  L 3.54326923076923 1.27272727272727  L 0.846153846153846 1.27272727272727  C 0.61698717948718 1.27272727272727  0.418669871794872 1.20975378787879  0.251201923076923 1.08380681818182  C 0.0837339743589744 0.957859848484848  0 0.808712121212121  0 0.636363636363636  C 0 0.464015151515151  0.0837339743589744 0.314867424242422  0.251201923076923 0.188920454545455  C 0.418669871794872 0.0629734848484835  0.61698717948718 0  0.846153846153846 0  L 4.23076923076923 0  C 4.37179487179487 0  4.49739583333333 0.0215435606060597  4.60757211538461 0.0646306818181821  C 4.7177483974359 0.107717803030303  4.8036858974359 0.159090909090909  4.86538461538461 0.21875  C 4.92708333333333 0.278409090909091  4.984375 0.35961174242424  5.03725961538461 0.462357954545455  C 5.09014423076923 0.565104166666666  5.12540064102564 0.651278409090909  5.14302884615385 0.720880681818182  C 5.16065705128205 0.790482954545455  5.18489583333333 0.888257575757575  5.21574519230769 1.01420454545454  C 5.24659455128205 1.14015151515151  5.26642628205128 1.22632575757576  5.27524038461539 1.27272727272727  L 21.1538461538462 1.27272727272727  C 21.3830128205128 1.27272727272727  21.5813301282051 1.33570075757576  21.7487980769231 1.46164772727273  Z " fill-rule="nonzero" fill="#000000" stroke="none" transform="matrix(1 0 0 1 608 174 )" />
  </g>
</svg>