<?xml version="1.0" encoding="utf-8"?>
<svg version="1.1" xmlns:xlink="http://www.w3.org/1999/xlink" width="17px" height="26px" xmlns="http://www.w3.org/2000/svg">
  <g transform="matrix(1 0 0 1 -652 -497 )">
    <path d="M 16.7079037800687 12.4008016032064  C 16.9026345933562 12.5744822979292  17 12.7742150968604  17 13  C 17 13.2257849031396  16.9026345933562 13.4255177020708  16.7079037800687 13.5991983967936  L 3.09621993127148 25.7394789579158  C 2.90148911798396 25.9131596526386  2.67754868270332 26  2.42439862542955 26  C 2.17124856815578 26  1.94730813287514 25.9131596526386  1.75257731958763 25.7394789579158  L 0.292096219931271 24.436873747495  C 0.0973654066437572 24.2631930527722  0 24.063460253841  0 23.8376753507014  C 0 23.6118904475618  0.0973654066437572 23.4121576486306  0.292096219931271 23.2384769539078  L 11.7714776632302 13  L 0.292096219931271 2.76152304609218  C 0.0973654066437572 2.5878423513694  0 2.38810955243821  0 2.1623246492986  C 0 1.93653974615898  0.0973654066437572 1.73680694722779  0.292096219931271 1.56312625250501  L 1.75257731958763 0.260521042084169  C 1.94730813287514 0.0868403473613886  2.17124856815578 0  2.42439862542955 0  C 2.67754868270332 0  2.90148911798396 0.0868403473613886  3.09621993127148 0.260521042084169  L 16.7079037800687 12.4008016032064  Z " fill-rule="nonzero" fill="#000000" stroke="none" transform="matrix(1 0 0 1 652 497 )" />
  </g>
</svg>