<?xml version="1.0" encoding="utf-8"?>
<svg version="1.1" xmlns:xlink="http://www.w3.org/1999/xlink" width="22px" height="19px" xmlns="http://www.w3.org/2000/svg">
  <g transform="matrix(1 0 0 1 -609 -169 )">
    <path d="M 0 4.07142857142857  L 11 0  L 22 4.07142857142857  L 22 5.42857142857143  L 20.5333333333333 5.42857142857143  C 20.5333333333333 5.61235119047619  20.4550347222222 5.77139136904762  20.2984375 5.90569196428572  C 20.1418402777778 6.03999255952381  19.9565972222222 6.10714285714286  19.7427083333333 6.10714285714286  L 2.25729166666667 6.10714285714286  C 2.04340277777778 6.10714285714286  1.85815972222222 6.03999255952381  1.7015625 5.90569196428572  C 1.54496527777778 5.77139136904762  1.46666666666667 5.61235119047619  1.46666666666667 5.42857142857143  L 0 5.42857142857143  L 0 4.07142857142857  Z M 2.93333333333333 14.9285714285714  L 2.93333333333333 6.78571428571428  L 5.86666666666667 6.78571428571428  L 5.86666666666667 14.9285714285714  L 7.33333333333333 14.9285714285714  L 7.33333333333333 6.78571428571428  L 10.2666666666667 6.78571428571428  L 10.2666666666667 14.9285714285714  L 11.7333333333333 14.9285714285714  L 11.7333333333333 6.78571428571428  L 14.6666666666667 6.78571428571428  L 14.6666666666667 14.9285714285714  L 16.1333333333333 14.9285714285714  L 16.1333333333333 6.78571428571428  L 19.0666666666667 6.78571428571428  L 19.0666666666667 14.9285714285714  L 19.7427083333333 14.9285714285714  C 19.9565972222222 14.9285714285714  20.1418402777778 14.9957217261905  20.2984375 15.1300223214286  C 20.4550347222222 15.2643229166667  20.5333333333333 15.4233630952381  20.5333333333333 15.6071428571429  L 20.5333333333333 16  L 1.46666666666667 16  L 1.46666666666667 15.6071428571429  C 1.46666666666667 15.4233630952381  1.54496527777778 15.2643229166667  1.7015625 15.1300223214286  C 1.85815972222222 14.9957217261905  2.04340277777778 14.9285714285714  2.25729166666667 14.9285714285714  L 2.93333333333333 14.9285714285714  Z M 0.790625 17  L 21.209375 17  C 21.4232638888889 16.9642857142857  21.6085069444444 17.0314360119048  21.7651041666667 17.1657366071429  C 21.9217013888889 17.300037202381  22 17.4590773809524  22 17.6428571428571  L 22 19  L 0 19  L 0 17.6428571428571  C 0 17.4590773809524  0.0782986111111111 17.300037202381  0.234895833333333 17.1657366071429  C 0.391493055555556 17.0314360119048  0.576736111111111 16.9642857142857  0.790625 17  Z " fill-rule="nonzero" fill="#000000" stroke="none" transform="matrix(1 0 0 1 609 169 )" />
  </g>
</svg>