<?xml version="1.0" encoding="utf-8"?>
<svg version="1.1" xmlns:xlink="http://www.w3.org/1999/xlink" width="28px" height="26px" xmlns="http://www.w3.org/2000/svg">
  <g transform="matrix(1 0 0 1 -402 -775 )">
    <path d="M 20.34375 22.8216761184625  L 19.1322115384615 15.9243856332703  L 24.28125 11.0586011342155  L 17.1802884615385 10.0428481411468  L 14 3.78449905482041  L 10.8197115384615 10.0428481411468  L 3.71875 11.0586011342155  L 8.86778846153846 15.9243856332703  L 7.63942307692308 22.8216761184625  L 14 19.5614366729679  L 20.34375 22.8216761184625  Z M 27.0576923076923 9.32199117832388  C 27.6858974358974 9.42028985507246  28 9.67149758454106  28 10.0756143667297  C 28 10.315900021004  27.8541666666667 10.5780298256669  27.5625 10.8620037807183  L 21.4543269230769 16.6616257088847  L 22.9014423076923 24.8531821045999  C 22.9126602564103 24.9296366309599  22.9182692307692 25.0388573829027  22.9182692307692 25.1808443604285  C 22.9182692307692 25.7269481201428  22.6883012820513 26  22.2283653846154 26  C 22.0152243589744 26  21.7908653846154 25.9344675488343  21.5552884615385 25.8034026465028  L 14 21.9369880277253  L 6.44471153846154 25.8034026465028  C 6.19791666666667 25.9344675488343  5.97355769230769 26  5.77163461538461 26  C 5.53605769230769 26  5.359375 25.9208149548414  5.24158653846154 25.7624448645243  C 5.12379807692308 25.6040747742071  5.06490384615385 25.4102079395085  5.06490384615385 25.1808443604285  C 5.06490384615385 25.1153119092628  5.0761217948718 25.0060911573199  5.09855769230769 24.8531821045999  L 6.54567307692308 16.6616257088847  L 0.420673076923077 10.8620037807183  C 0.140224358974359 10.5671077504726  0 10.3049779458097  0 10.0756143667297  C 0 9.67149758454106  0.314102564102564 9.42028985507246  0.942307692307692 9.32199117832388  L 9.38942307692308 8.12602394454946  L 13.1754807692308 0.671707624448644  C 13.3886217948718 0.22390254148288  13.6634615384615 0  14 0  C 14.3365384615385 0  14.6113782051282 0.22390254148288  14.8245192307692 0.671707624448644  L 18.6105769230769 8.12602394454946  L 27.0576923076923 9.32199117832388  Z " fill-rule="nonzero" fill="#000000" stroke="none" transform="matrix(1 0 0 1 402 775 )" />
  </g>
</svg>