<?xml version="1.0" encoding="utf-8"?>
<svg version="1.1" xmlns:xlink="http://www.w3.org/1999/xlink" width="30px" height="22px" xmlns="http://www.w3.org/2000/svg">
  <g transform="matrix(1 0 0 1 -329 -779 )">
    <path d="M 10.8533653846154 18.59375  C 11.3100961538462 18.9895833333333  11.5384615384615 19.4583333333333  11.5384615384615 20  C 11.5384615384615 20.5416666666667  11.3100961538462 21.0104166666667  10.8533653846154 21.40625  C 10.3966346153846 21.8020833333333  9.85576923076923 22  9.23076923076923 22  C 8.60576923076923 22  8.06490384615385 21.8020833333333  7.60817307692308 21.40625  C 7.15144230769231 21.0104166666667  6.92307692307692 20.5416666666667  6.92307692307692 20  C 6.92307692307692 19.4583333333333  7.15144230769231 18.9895833333333  7.60817307692308 18.59375  C 8.06490384615385 18.1979166666667  8.60576923076923 18  9.23076923076923 18  C 9.85576923076923 18  10.3966346153846 18.1979166666667  10.8533653846154 18.59375  Z M 27.0072115384615 18.59375  C 27.4639423076923 18.9895833333333  27.6923076923077 19.4583333333333  27.6923076923077 20  C 27.6923076923077 20.5416666666667  27.4639423076923 21.0104166666667  27.0072115384615 21.40625  C 26.5504807692308 21.8020833333333  26.0096153846154 22  25.3846153846154 22  C 24.7596153846154 22  24.21875 21.8020833333333  23.7620192307692 21.40625  C 23.3052884615385 21.0104166666667  23.0769230769231 20.5416666666667  23.0769230769231 20  C 23.0769230769231 19.4583333333333  23.3052884615385 18.9895833333333  23.7620192307692 18.59375  C 24.21875 18.1979166666667  24.7596153846154 18  25.3846153846154 18  C 26.0096153846154 18  26.5504807692308 18.1979166666667  27.0072115384615 18.59375  Z M 29.6574519230769 2.296875  C 29.8858173076923 2.49479166666666  30 2.72916666666666  30 3  L 30 11  C 30 11.25  29.9008413461538 11.4713541666667  29.7025240384615 11.6640625  C 29.5042067307692 11.8567708333333  29.2608173076923 11.96875  28.9723557692308 12  L 10.1502403846154 13.90625  C 10.3064903846154 14.53125  10.3846153846154 14.8958333333333  10.3846153846154 15  C 10.3846153846154 15.1666666666667  10.2403846153846 15.5  9.95192307692308 16  L 26.5384615384615 16  C 26.8509615384615 16  27.1213942307692 16.0989583333333  27.3497596153846 16.296875  C 27.578125 16.4947916666667  27.6923076923077 16.7291666666667  27.6923076923077 17  C 27.6923076923077 17.2708333333333  27.578125 17.5052083333333  27.3497596153846 17.703125  C 27.1213942307692 17.9010416666667  26.8509615384615 18  26.5384615384615 18  L 8.07692307692308 18  C 7.76442307692308 18  7.49399038461539 17.9010416666667  7.265625 17.703125  C 7.03725961538461 17.5052083333333  6.92307692307692 17.2708333333333  6.92307692307692 17  C 6.92307692307692 16.8854166666667  6.97115384615385 16.7213541666667  7.06730769230769 16.5078125  C 7.16346153846154 16.2942708333333  7.25961538461539 16.1067708333333  7.35576923076923 15.9453125  C 7.45192307692308 15.7838541666667  7.58112980769231 15.5755208333333  7.74338942307692 15.3203125  C 7.90564903846154 15.0651041666667  7.99879807692308 14.9114583333333  8.02283653846154 14.859375  L 4.83173076923077 2  L 1.15384615384615 2  C 0.841346153846154 2  0.570913461538462 1.90104166666666  0.342548076923077 1.703125  C 0.114182692307692 1.50520833333333  0 1.27083333333333  0 0.999999999999999  C 0 0.729166666666665  0.114182692307692 0.494791666666664  0.342548076923077 0.296875000000001  C 0.570913461538462 0.0989583333333313  0.841346153846154 0  1.15384615384615 0  L 5.76923076923077 0  C 5.96153846153846 0  6.1328125 0.0338541666666652  6.28305288461538 0.1015625  C 6.43329326923077 0.169270833333333  6.55048076923077 0.25  6.63461538461538 0.34375  C 6.71875 0.4375  6.796875 0.565104166666663  6.86899038461538 0.726562500000001  C 6.94110576923077 0.888020833333332  6.98918269230769 1.0234375  7.01322115384615 1.1328125  C 7.03725961538462 1.2421875  7.0703125 1.39583333333333  7.11237980769231 1.59375  C 7.15444711538462 1.79166666666666  7.18149038461539 1.92708333333333  7.19350961538462 2  L 28.8461538461538 2  C 29.1586538461539 2  29.4290865384615 2.09895833333333  29.6574519230769 2.296875  Z " fill-rule="nonzero" fill="#000000" stroke="none" transform="matrix(1 0 0 1 329 779 )" />
  </g>
</svg>