<?xml version="1.0" encoding="utf-8"?>
<svg version="1.1" xmlns:xlink="http://www.w3.org/1999/xlink" width="105px" height="95px" xmlns="http://www.w3.org/2000/svg">
  <g transform="matrix(1 0 0 1 -1113 -567 )">
    <path d="M 1113 567  L 1218 567  L 1218 662  L 1113 662  L 1113 567  " fill-rule="nonzero" fill="#cccccc" stroke="none" />
    <path d="M 1120 574  L 1211 574  L 1211 655  L 1120 655  L 1120 574  " fill-rule="nonzero" fill="#ffffff" stroke="none" />
    <path d="M 1174.725 595.5  C 1170.735 595.5  1167.6 592.365  1167.6 588.375  C 1167.6 584.385  1170.735 581.25  1174.725 581.25  C 1178.715 581.25  1181.85 584.385  1181.85 588.375  C 1181.85 592.365  1178.715 595.5  1174.725 595.5  " fill-rule="nonzero" fill="#cccccc" stroke="none" />
    <path d="M 1123 653  L 1123 611.2  L 1144.5 592.2  L 1174.6 611.742857142857  L 1191.8 603.6  L 1209 611.742857142857  L 1209 653  L 1123 653  " fill-rule="nonzero" fill="#169bd5" stroke="none" />
  </g>
</svg>