<?xml version="1.0" encoding="utf-8"?>
<svg version="1.1" xmlns:xlink="http://www.w3.org/1999/xlink" width="12px" height="12px" viewBox="919 768  12 12" xmlns="http://www.w3.org/2000/svg">
  <path d="M 925 768  C 928.36 768  931 770.64  931 774  C 931 777.36  928.36 780  925 780  C 921.64 780  919 777.36  919 774  C 919 770.64  921.64 768  925 768  Z " fill-rule="nonzero" fill="#ffffff" stroke="none" />
  <path d="M 925 768.5  C 928.08 768.5  930.5 770.92  930.5 774  C 930.5 777.08  928.08 779.5  925 779.5  C 921.92 779.5  919.5 777.08  919.5 774  C 919.5 770.92  921.92 768.5  925 768.5  Z " stroke-width="1" stroke="#797979" fill="none" />
  <path d="M 925 777  C 923.32 777  922 775.68  922 774  C 922 772.32  923.32 771  925 771  C 926.68 771  928 772.32  928 774  C 928 775.68  926.68 777  925 777  " fill-rule="nonzero" fill="#797979" stroke="none" />
</svg>