<?xml version="1.0" encoding="utf-8"?>
<svg version="1.1" xmlns:xlink="http://www.w3.org/1999/xlink" width="12px" height="12px" viewBox="919 595  12 12" xmlns="http://www.w3.org/2000/svg">
  <path d="M 925 595  C 928.36 595  931 597.64  931 601  C 931 604.36  928.36 607  925 607  C 921.64 607  919 604.36  919 601  C 919 597.64  921.64 595  925 595  Z " fill-rule="nonzero" fill="#ffffff" stroke="none" />
  <path d="M 925 595.5  C 928.08 595.5  930.5 597.92  930.5 601  C 930.5 604.08  928.08 606.5  925 606.5  C 921.92 606.5  919.5 604.08  919.5 601  C 919.5 597.92  921.92 595.5  925 595.5  Z " stroke-width="1" stroke="#797979" fill="none" />
  <path d="M 925 604  C 923.32 604  922 602.68  922 601  C 922 599.32  923.32 598  925 598  C 926.68 598  928 599.32  928 601  C 928 602.68  926.68 604  925 604  " fill-rule="nonzero" fill="#797979" stroke="none" />
</svg>