<?xml version="1.0" encoding="utf-8"?>
<svg version="1.1" xmlns:xlink="http://www.w3.org/1999/xlink" width="12px" height="12px" viewBox="1050 768  12 12" xmlns="http://www.w3.org/2000/svg">
  <path d="M 1056 768  C 1059.36 768  1062 770.64  1062 774  C 1062 777.36  1059.36 780  1056 780  C 1052.64 780  1050 777.36  1050 774  C 1050 770.64  1052.64 768  1056 768  Z " fill-rule="nonzero" fill="#ffffff" stroke="none" />
  <path d="M 1056 768.5  C 1059.08 768.5  1061.5 770.92  1061.5 774  C 1061.5 777.08  1059.08 779.5  1056 779.5  C 1052.92 779.5  1050.5 777.08  1050.5 774  C 1050.5 770.92  1052.92 768.5  1056 768.5  Z " stroke-width="1" stroke="#797979" fill="none" />
  <path d="M 1056 777  C 1054.32 777  1053 775.68  1053 774  C 1053 772.32  1054.32 771  1056 771  C 1057.68 771  1059 772.32  1059 774  C 1059 775.68  1057.68 777  1056 777  " fill-rule="nonzero" fill="#797979" stroke="none" />
</svg>