<?xml version="1.0" encoding="utf-8"?>
<svg version="1.1" xmlns:xlink="http://www.w3.org/1999/xlink" width="126px" height="113px" xmlns="http://www.w3.org/2000/svg">
  <g transform="matrix(1 0 0 1 -919 -582 )">
    <path d="M 919 582  L 1045 582  L 1045 695  L 919 695  L 919 582  " fill-rule="nonzero" fill="#cccccc" stroke="none" />
    <path d="M 927 590  L 1037 590  L 1037 687  L 927 687  L 927 590  " fill-rule="nonzero" fill="#ffffff" stroke="none" />
    <path d="M 992.995 615.9  C 988.249 615.9  984.52 612.171  984.52 607.425  C 984.52 602.679  988.249 598.95  992.995 598.95  C 997.741 598.95  1001.47 602.679  1001.47 607.425  C 1001.47 612.171  997.741 615.9  992.995 615.9  " fill-rule="nonzero" fill="#cccccc" stroke="none" />
    <path d="M 930 684  L 930 633.95  L 956 611.2  L 992.4 635.033333333333  L 1013.2 624.85  L 1034 635.033333333333  L 1034 684  L 930 684  " fill-rule="nonzero" fill="#169bd5" stroke="none" />
  </g>
</svg>