<?xml version="1.0" encoding="utf-8"?>
<svg version="1.1" xmlns:xlink="http://www.w3.org/1999/xlink" width="192px" height="128px" xmlns="http://www.w3.org/2000/svg">
  <g transform="matrix(1 0 0 1 -1182 -694 )">
    <path d="M 1182 694  L 1374 694  L 1374 822  L 1182 822  L 1182 694  " fill-rule="nonzero" fill="#cccccc" stroke="none" />
    <path d="M 1191 703  L 1365 703  L 1365 813  L 1191 813  L 1191 703  " fill-rule="nonzero" fill="#ffffff" stroke="none" />
    <path d="M 1291.44 732.4  C 1286.064 732.4  1281.84 728.176  1281.84 722.8  C 1281.84 717.424  1286.064 713.2  1291.44 713.2  C 1296.816 713.2  1301.04 717.424  1301.04 722.8  C 1301.04 728.176  1296.816 732.4  1291.44 732.4  " fill-rule="nonzero" fill="#cccccc" stroke="none" />
    <path d="M 1194 810  L 1194 752.8  L 1236 726.8  L 1294.8 768.4  L 1328.4 742.4  L 1362 768.4  L 1362 810  L 1194 810  " fill-rule="nonzero" fill="#169bd5" stroke="none" />
  </g>
</svg>