<?xml version="1.0" encoding="utf-8"?>
<svg version="1.1" xmlns:xlink="http://www.w3.org/1999/xlink" width="19px" height="30px" xmlns="http://www.w3.org/2000/svg">
  <g transform="matrix(1 0 0 1 -308 -161 )">
    <path d="M 18.6735395189003 1.80360721442886  C 18.8911798396335 2.00400801603206  19 2.23446893787575  19 2.49498997995992  C 19 2.75551102204409  18.8911798396335 2.98597194388777  18.6735395189003 3.18637274549098  L 5.84364261168385 15  L 18.6735395189003 26.813627254509  C 18.8911798396335 27.0140280561122  19 27.2444889779559  19 27.5050100200401  C 19 27.7655310621242  18.8911798396335 27.9959919839679  18.6735395189003 28.1963927855711  L 17.0412371134021 29.6993987975952  C 16.823596792669 29.8997995991984  16.5733104238259 30  16.2903780068729 30  C 16.0074455899198 30  15.7571592210767 29.8997995991984  15.5395189003436 29.6993987975952  L 0.326460481099656 15.6913827655311  C 0.108820160366552 15.4909819639279  0 15.2605210420842  0 15  C 0 14.7394789579158  0.108820160366552 14.5090180360721  0.326460481099656 14.3086172344689  L 15.5395189003436 0.30060120240481  C 15.7571592210767 0.100200400801602  16.0074455899198 0  16.2903780068729 0  C 16.5733104238259 0  16.823596792669 0.100200400801602  17.0412371134021 0.30060120240481  L 18.6735395189003 1.80360721442886  Z " fill-rule="nonzero" fill="#000000" stroke="none" transform="matrix(1 0 0 1 308 161 )" />
  </g>
</svg>