<?xml version="1.0" encoding="utf-8"?>
<svg version="1.1" xmlns:xlink="http://www.w3.org/1999/xlink" width="24px" height="24px" viewBox="934 572  24 24" xmlns="http://www.w3.org/2000/svg">
  <path d="M 946 572  C 952.72 572  958 577.28  958 584  C 958 590.72  952.72 596  946 596  C 939.28 596  934 590.72  934 584  C 934 577.28  939.28 572  946 572  Z " fill-rule="nonzero" fill="#ffffff" stroke="none" />
  <path d="M 946 572.5  C 952.44 572.5  957.5 577.56  957.5 584  C 957.5 590.44  952.44 595.5  946 595.5  C 939.56 595.5  934.5 590.44  934.5 584  C 934.5 577.56  939.56 572.5  946 572.5  Z " stroke-width="1" stroke="#797979" fill="none" />
  <path d="M 946 590  C 942.64 590  940 587.36  940 584  C 940 580.64  942.64 578  946 578  C 949.36 578  952 580.64  952 584  C 952 587.36  949.36 590  946 590  " fill-rule="nonzero" fill="#797979" stroke="none" />
</svg>