<?xml version="1.0" encoding="utf-8"?>
<svg version="1.1" xmlns:xlink="http://www.w3.org/1999/xlink" width="24px" height="23px" xmlns="http://www.w3.org/2000/svg">
  <g transform="matrix(1 0 0 1 -2104 -907 )">
    <path d="M 23.4343434343434 17.1919191919192  C 23.8114478114478 17.5533108866442  24 17.9921436588103  24 18.5084175084175  C 24 19.0246913580247  23.8114478114478 19.4635241301908  23.4343434343434 19.8249158249158  L 20.6868686868687 22.4579124579125  C 20.3097643097643 22.8193041526375  19.8518518518519 23  19.3131313131313 23  C 18.7744107744108 23  18.3164983164983 22.8193041526375  17.9393939393939 22.4579124579125  L 12 16.7659932659933  L 6.06060606060606 22.4579124579125  C 5.68350168350168 22.8193041526375  5.22558922558923 23  4.68686868686869 23  C 4.14814814814815 23  3.69023569023569 22.8193041526375  3.31313131313131 22.4579124579125  L 0.565656565656566 19.8249158249158  C 0.188552188552189 19.4635241301908  0 19.0246913580247  0 18.5084175084175  C 0 17.9921436588103  0.188552188552189 17.5533108866442  0.565656565656566 17.1919191919192  L 6.50505050505051 11.5  L 0.565656565656566 5.80808080808081  C 0.188552188552189 5.44668911335578  0 5.00785634118968  0 4.49158249158249  C 0 3.97530864197531  0.188552188552189 3.5364758698092  0.565656565656566 3.17508417508418  L 3.31313131313131 0.542087542087542  C 3.69023569023569 0.180695847362513  4.14814814814815 0  4.68686868686869 0  C 5.22558922558923 0  5.68350168350168 0.180695847362513  6.06060606060606 0.542087542087542  L 12 6.23400673400674  L 17.9393939393939 0.542087542087542  C 18.3164983164983 0.180695847362513  18.7744107744108 0  19.3131313131313 0  C 19.8518518518519 0  20.3097643097643 0.180695847362513  20.6868686868687 0.542087542087542  L 23.4343434343434 3.17508417508418  C 23.8114478114478 3.5364758698092  24 3.97530864197531  24 4.49158249158249  C 24 5.00785634118968  23.8114478114478 5.44668911335578  23.4343434343434 5.80808080808081  L 17.4949494949495 11.5  L 23.4343434343434 17.1919191919192  Z " fill-rule="nonzero" fill="#000000" stroke="none" transform="matrix(1 0 0 1 2104 907 )" />
  </g>
</svg>