<?xml version="1.0" encoding="utf-8"?>
<svg version="1.1" xmlns:xlink="http://www.w3.org/1999/xlink" width="25px" height="28px" xmlns="http://www.w3.org/2000/svg">
  <g transform="matrix(1 0 0 1 -2076 -217 )">
    <path d="M 23.6897786458333 9.30528846153846  C 24.5632595486111 11.1113782051282  25 13.0352564102564  25 15.0769230769231  C 25 16.8269230769231  24.6690538194444 18.4983974358974  24.0071614583333 20.0913461538462  C 23.3452690972222 21.6842948717949  22.4555121527778 23.0584935897436  21.337890625 24.2139423076923  C 20.2202690972222 25.369391025641  18.8910590277778 26.2892628205128  17.3502604166667 26.9735576923077  C 15.8094618055556 27.6578525641026  14.1927083333333 28  12.5 28  C 10.8072916666667 28  9.19053819444445 27.6578525641026  7.64973958333333 26.9735576923077  C 6.10894097222222 26.2892628205128  4.77973090277778 25.369391025641  3.662109375 24.2139423076923  C 2.54448784722222 23.0584935897436  1.65473090277778 21.6842948717949  0.992838541666667 20.0913461538462  C 0.330946180555556 18.4983974358974  0 16.8269230769231  0 15.0769230769231  C 0 13.0352564102564  0.436740451388889 11.1113782051282  1.31022135416667 9.30528846153846  C 2.18370225694444 7.49919871794872  3.41254340277778 5.98477564102564  4.99674479166667 4.76201923076923  C 5.46332465277778 4.40304487179487  5.9814453125 4.26282051282051  6.55110677083333 4.34134615384615  C 7.12076822916667 4.41987179487179  7.57378472222222 4.70032051282051  7.91015625 5.18269230769231  C 8.25737847222222 5.65384615384615  8.39029947916667 6.18389423076923  8.30891927083333 6.77283653846154  C 8.2275390625 7.36177884615385  7.958984375 7.83573717948718  7.50325520833333 8.19471153846154  C 6.43988715277778 9.02483974358974  5.61794704861111 10.0400641025641  5.03743489583333 11.2403846153846  C 4.45692274305556 12.4407051282051  4.16666666666667 13.7195512820513  4.16666666666667 15.0769230769231  C 4.16666666666667 16.2435897435897  4.38639322916667 17.3569711538462  4.82584635416667 18.4170673076923  C 5.26529947916667 19.4771634615385  5.859375 20.3942307692308  6.60807291666667 21.1682692307692  C 7.35677083333333 21.9423076923077  8.24381510416667 22.5564903846154  9.26920572916667 23.0108173076923  C 10.2945963541667 23.4651442307692  11.3715277777778 23.6923076923077  12.5 23.6923076923077  C 13.6284722222222 23.6923076923077  14.7054036458333 23.4651442307692  15.7307942708333 23.0108173076923  C 16.7561848958333 22.5564903846154  17.6432291666667 21.9423076923077  18.3919270833333 21.1682692307692  C 19.140625 20.3942307692308  19.7347005208333 19.4771634615385  20.1741536458333 18.4170673076923  C 20.6136067708333 17.3569711538462  20.8333333333333 16.2435897435897  20.8333333333333 15.0769230769231  C 20.8333333333333 13.7195512820513  20.5430772569444 12.4407051282051  19.9625651041667 11.2403846153846  C 19.3820529513889 10.0400641025641  18.5601128472222 9.02483974358974  17.4967447916667 8.19471153846154  C 17.041015625 7.83573717948718  16.7724609375 7.36177884615385  16.6910807291667 6.77283653846154  C 16.6097005208333 6.18389423076923  16.7426215277778 5.65384615384615  17.08984375 5.18269230769231  C 17.4262152777778 4.70032051282051  17.8819444444444 4.41987179487179  18.45703125 4.34134615384615  C 19.0321180555556 4.26282051282051  19.5475260416667 4.40304487179487  20.0032552083333 4.76201923076923  C 21.5874565972222 5.98477564102564  22.8162977430556 7.49919871794872  23.6897786458333 9.30528846153846  Z M 13.96484375 0.639423076923076  C 14.3771701388889 1.06570512820513  14.5833333333333 1.57051282051282  14.5833333333333 2.15384615384615  L 14.5833333333333 12.9230769230769  C 14.5833333333333 13.5064102564103  14.3771701388889 14.0112179487179  13.96484375 14.4375  C 13.5525173611111 14.863782051282  13.0642361111111 15.0769230769231  12.5 15.0769230769231  C 11.9357638888889 15.0769230769231  11.4474826388889 14.863782051282  11.03515625 14.4375  C 10.6228298611111 14.0112179487179  10.4166666666667 13.5064102564103  10.4166666666667 12.9230769230769  L 10.4166666666667 2.15384615384615  C 10.4166666666667 1.57051282051282  10.6228298611111 1.06570512820513  11.03515625 0.639423076923076  C 11.4474826388889 0.213141025641026  11.9357638888889 0  12.5 0  C 13.0642361111111 0  13.5525173611111 0.213141025641026  13.96484375 0.639423076923076  Z " fill-rule="nonzero" fill="#000000" stroke="none" transform="matrix(1 0 0 1 2076 217 )" />
  </g>
</svg>