<?xml version="1.0" encoding="utf-8"?>
<svg version="1.1" xmlns:xlink="http://www.w3.org/1999/xlink" width="43px" height="36px" xmlns="http://www.w3.org/2000/svg">
  <g transform="matrix(1 0 0 1 -250 -831 )">
    <path d="M 32.5859375 12.6051136363636  C 32.9132612179487 12.28125  33.0769230769231 11.8977272727273  33.0769230769231 11.4545454545455  C 33.0769230769231 11.0113636363636  32.9132612179487 10.6278409090909  32.5859375 10.3039772727273  C 32.2586137820513 9.98011363636364  31.8709935897436 9.81818181818182  31.4230769230769 9.81818181818182  C 30.9751602564103 9.81818181818182  30.5875400641026 9.98011363636364  30.2602163461538 10.3039772727273  L 26.4615384615385 14.0369318181818  L 26.4615384615385 6.54545454545454  C 26.4615384615385 6.10227272727272  26.2978766025641 5.71874999999999  25.9705528846154 5.39488636363637  C 25.6432291666667 5.07102272727272  25.255608974359 4.90909090909091  24.8076923076923 4.90909090909091  C 24.3597756410256 4.90909090909091  23.9721554487179 5.07102272727272  23.6448317307692 5.39488636363637  C 23.3175080128205 5.71874999999999  23.1538461538462 6.10227272727272  23.1538461538462 6.54545454545454  L 23.1538461538462 14.0369318181818  L 19.3551682692308 10.3039772727273  C 19.0278445512821 9.98011363636364  18.6402243589744 9.81818181818182  18.1923076923077 9.81818181818182  C 17.744391025641 9.81818181818182  17.3567708333333 9.98011363636364  17.0294471153846 10.3039772727273  C 16.7021233974359 10.6278409090909  16.5384615384615 11.0113636363636  16.5384615384615 11.4545454545455  C 16.5384615384615 11.8977272727273  16.7021233974359 12.28125  17.0294471153846 12.6051136363636  L 23.6448317307692 19.1505681818182  C 23.9721554487179 19.4744318181818  24.3597756410256 19.6363636363636  24.8076923076923 19.6363636363636  C 25.255608974359 19.6363636363636  25.6432291666667 19.4744318181818  25.9705528846154 19.1505681818182  L 32.5859375 12.6051136363636  Z M 15.5694110576923 30.4133522727273  C 16.2154447115385 31.0525568181818  16.5384615384615 31.8238636363636  16.5384615384615 32.7272727272727  C 16.5384615384615 33.6306818181818  16.2154447115385 34.4019886363636  15.5694110576923 35.0411931818182  C 14.9233774038462 35.6803977272727  14.1438301282051 36  13.2307692307692 36  C 12.3177083333333 36  11.5381610576923 35.6803977272727  10.8921274038462 35.0411931818182  C 10.24609375 34.4019886363636  9.92307692307692 33.6306818181818  9.92307692307692 32.7272727272727  C 9.92307692307692 31.8238636363636  10.24609375 31.0525568181818  10.8921274038462 30.4133522727273  C 11.5381610576923 29.7741477272727  12.3177083333333 29.4545454545455  13.2307692307692 29.4545454545455  C 14.1438301282051 29.4545454545455  14.9233774038462 29.7741477272727  15.5694110576923 30.4133522727273  Z M 38.7232572115385 30.4133522727273  C 39.3692908653846 31.0525568181818  39.6923076923077 31.8238636363636  39.6923076923077 32.7272727272727  C 39.6923076923077 33.6306818181818  39.3692908653846 34.4019886363636  38.7232572115385 35.0411931818182  C 38.0772235576923 35.6803977272727  37.2976762820513 36  36.3846153846154 36  C 35.4715544871795 36  34.6920072115385 35.6803977272727  34.0459735576923 35.0411931818182  C 33.3999399038462 34.4019886363636  33.0769230769231 33.6306818181818  33.0769230769231 32.7272727272727  C 33.0769230769231 31.8238636363636  33.3999399038462 31.0525568181818  34.0459735576923 30.4133522727273  C 34.6920072115385 29.7741477272727  35.4715544871795 29.4545454545455  36.3846153846154 29.4545454545455  C 37.2976762820513 29.4545454545455  38.0772235576923 29.7741477272727  38.7232572115385 30.4133522727273  Z M 42.5090144230769 3.75852272727273  C 42.8363381410256 4.08238636363636  43 4.46590909090909  43 4.90909090909091  L 43 18  C 43 18.4090909090909  42.8621794871795 18.7713068181818  42.5865384615385 19.0866477272727  C 42.3108974358974 19.4019886363636  41.9577323717949 19.5852272727273  41.5270432692308 19.6363636363636  L 14.5486778846154 22.7556818181818  C 14.565905448718 22.875  14.6046674679487 23.0582386363636  14.6649639423077 23.3053977272727  C 14.7252604166667 23.5525568181818  14.7769431089744 23.7784090909091  14.8200120192308 23.9829545454545  C 14.8630809294872 24.1875  14.8846153846154 24.375  14.8846153846154 24.5454545454545  C 14.8846153846154 24.8181818181818  14.6778846153846 25.3636363636364  14.2644230769231 26  L 38.0384615384615 26  C 38.4863782051282 26.1818181818182  38.8739983974359 26.34375  39.2013221153846 26.6676136363636  C 39.5286458333333 26.9914772727273  39.6923076923077 27.375  39.6923076923077 27.8181818181818  C 39.6923076923077 28.2613636363636  39.5286458333333 28.6448863636364  39.2013221153846 28.96875  C 38.8739983974359 29.2926136363636  38.4863782051282 29.4545454545455  38.0384615384615 29  L 11.5769230769231 29  C 11.1290064102564 29.4545454545455  10.7413862179487 29.2926136363636  10.4140625 28.96875  C 10.0867387820513 28.6448863636364  9.92307692307692 28.2613636363636  9.92307692307692 27.8181818181818  C 9.92307692307692 27.5795454545455  10.017828525641 27.2428977272727  10.2073317307692 26.8082386363636  C 10.3968349358974 26.3735795454545  10.6509415064103 25.8664772727273  10.9696514423077 25.2869318181818  C 11.2883613782051 24.7073863636364  11.4649439102564 24.3835227272727  11.4993990384615 24.3153409090909  L 6.92548076923077 3.27272727272727  L 1.65384615384615 3.27272727272727  C 1.20592948717949 3.27272727272727  0.818309294871795 3.11079545454545  0.490985576923077 2.78693181818182  C 0.163661858974359 2.46306818181818  0 2.07954545454545  0 1.63636363636363  C 0 1.19318181818182  0.163661858974359 0.809659090909086  0.490985576923077 0.485795454545456  C 0.818309294871795 0.161931818181815  1.20592948717949 0  1.65384615384615 0  L 8.26923076923077 0  C 8.5448717948718 0  8.79036458333333 0.0553977272727249  9.00570913461539 0.166193181818183  C 9.22105368589744 0.276988636363636  9.39332932692308 0.409090909090909  9.52253605769231 0.5625  C 9.65174278846154 0.715909090909091  9.76372195512821 0.924715909090903  9.85847355769231 1.18892045454546  C 9.95322516025641 1.453125  10.017828525641 1.67897727272727  10.0522836538462 1.86647727272727  C 10.0867387820513 2.05397727272727  10.1341145833333 2.30539772727272  10.1944110576923 2.62073863636363  C 10.2547075320513 2.93607954545454  10.2934695512821 3.15340909090909  10.3106971153846 3.27272727272727  L 41.3461538461538 3.27272727272727  C 41.7940705128205 3.27272727272727  42.1816907051282 3.43465909090909  42.5090144230769 3.75852272727273  Z " fill-rule="nonzero" fill="#000000" stroke="none" transform="matrix(1 0 0 1 250 831 )" />
  </g>
</svg>