<?xml version="1.0" encoding="utf-8"?>
<svg version="1.1" xmlns:xlink="http://www.w3.org/1999/xlink" width="43px" height="38px" xmlns="http://www.w3.org/2000/svg">
  <g transform="matrix(1 0 0 1 -250 -615 )">
    <path d="M 25.4752604166667 33.9992559523809  C 25.8111979166667 33.7447916666667  25.9791666666667 33.3819444444444  25.9791666666667 32.9107142857143  L 26 31.3273809523809  L 26 18.0952380952381  L 25.9791666666667 12.6666666666667  L 17.0208333333333 12.6666666666667  L 17 18.0952380952381  L 17 31.3273809523809  L 17.0208333333333 32.9107142857143  C 17.0208333333333 33.3819444444444  17.1888020833333 33.7447916666667  17.5247395833333 33.9992559523809  C 17.8606770833333 34.2537202380952  18.2899305555556 34.3809523809524  18.8125 34.3809523809524  L 24.1875 34.3809523809524  C 24.7100694444444 34.3809523809524  25.1393229166667 34.2537202380952  25.4752604166667 33.9992559523809  Z M 11.3098958333333 8.25595238095238  C 11.8324652777778 8.78373015873015  12.4670138888889 9.04761904761905  13.2135416666667 9.04761904761905  L 18.6725260416667 9.04761904761905  L 15.1451822916667 4.49553571428571  C 14.6599392361111 3.91121031746031  14.0160590277778 3.61904761904762  13.2135416666667 3.61904761904762  C 12.4670138888889 3.61904761904762  11.8324652777778 3.88293650793651  11.3098958333333 4.41071428571429  C 10.7873263888889 4.93849206349206  10.5260416666667 5.57936507936508  10.5260416666667 6.33333333333333  C 10.5260416666667 7.08730158730158  10.7873263888889 7.7281746031746  11.3098958333333 8.25595238095238  Z M 31.6901041666667 8.25595238095238  C 32.2126736111111 7.7281746031746  32.4739583333333 7.08730158730158  32.4739583333333 6.33333333333333  C 32.4739583333333 5.57936507936508  32.2126736111111 4.93849206349206  31.6901041666667 4.41071428571429  C 31.1675347222222 3.88293650793651  30.5329861111111 3.61904761904762  29.7864583333333 3.61904761904762  C 28.9839409722222 3.61904761904762  28.3400607638889 3.91121031746031  27.8548177083333 4.49553571428571  L 24.35546875 9.04761904761905  L 29.7864583333333 9.04761904761905  C 30.5329861111111 9.04761904761905  31.1675347222222 8.78373015873015  31.6901041666667 8.25595238095238  Z M 42.748046875 12.921130952381  C 42.916015625 13.0907738095238  43 13.3075396825397  43 13.5714285714286  L 43 22.6190476190476  C 43 22.8829365079365  42.916015625 23.0997023809524  42.748046875 23.2693452380952  C 42.580078125 23.4389880952381  42.3654513888889 23.5238095238095  42.1041666666667 23.5238095238095  L 39 23.5238095238095  L 39 35.2857142857143  C 39.4166666666667 36.0396825396825  39.1553819444444 36.6805555555556  38.6328125 37.2083333333333  C 38.1102430555556 37.7361111111111  37.4756944444444 38  36.7291666666667 38  L 6.27083333333333 38  C 5.52430555555556 38  4.88975694444444 37.7361111111111  4.3671875 37.2083333333333  C 3.84461805555556 36.6805555555556  3.58333333333333 36.0396825396825  4 35.2857142857143  L 4 23.5238095238095  L 0.895833333333333 23.5238095238095  C 0.634548611111111 23.5238095238095  0.419921875 23.4389880952381  0.251953125 23.2693452380952  C 0.083984375 23.0997023809524  0 22.8829365079365  0 22.6190476190476  L 0 13.5714285714286  C 0 13.3075396825397  0.083984375 13.0907738095238  0.251953125 12.921130952381  C 0.419921875 12.7514880952381  0.634548611111111 12.6666666666667  0.895833333333333 13  L 13.2135416666667 13  C 11.4778645833333 12.6666666666667  9.99880642361111 12.0493551587302  8.7763671875 10.8147321428571  C 7.55392795138889 9.58010912698413  6.94270833333333 8.08630952380953  6.94270833333333 6.33333333333333  C 6.94270833333333 4.58035714285714  7.55392795138889 3.08655753968253  8.7763671875 1.85193452380952  C 9.99880642361111 0.617311507936507  11.4778645833333 0  13.2135416666667 0  C 15.2105034722222 0  16.7782118055556 0.72569444444444  17.9166666666667 2.17708333333333  L 21.5 6.84226190476191  L 25.0833333333333 2.17708333333333  C 26.2217881944444 0.72569444444444  27.7894965277778 0  29.7864583333333 0  C 31.5221354166667 0  33.0011935763889 0.617311507936507  34.2236328125 1.85193452380952  C 35.4460720486111 3.08655753968253  36.0572916666667 4.58035714285714  36.0572916666667 6.33333333333333  C 36.0572916666667 8.08630952380953  35.4460720486111 9.58010912698413  34.2236328125 10.8147321428571  C 33.0011935763889 12.0493551587302  31.5221354166667 12.6666666666667  29.7864583333333 13  L 42.1041666666667 13  C 42.3654513888889 12.6666666666667  42.580078125 12.7514880952381  42.748046875 12.921130952381  Z " fill-rule="nonzero" fill="#000000" stroke="none" transform="matrix(1 0 0 1 250 615 )" />
  </g>
</svg>