<?xml version="1.0" encoding="utf-8"?>
<svg version="1.1" xmlns:xlink="http://www.w3.org/1999/xlink" width="12px" height="12px" viewBox="919 644  12 12" xmlns="http://www.w3.org/2000/svg">
  <path d="M 925 644  C 928.36 644  931 646.64  931 650  C 931 653.36  928.36 656  925 656  C 921.64 656  919 653.36  919 650  C 919 646.64  921.64 644  925 644  Z " fill-rule="nonzero" fill="#ffffff" stroke="none" />
  <path d="M 925 644.5  C 928.08 644.5  930.5 646.92  930.5 650  C 930.5 653.08  928.08 655.5  925 655.5  C 921.92 655.5  919.5 653.08  919.5 650  C 919.5 646.92  921.92 644.5  925 644.5  Z " stroke-width="1" stroke="#797979" fill="none" />
  <path d="M 925 653  C 923.32 653  922 651.68  922 650  C 922 648.32  923.32 647  925 647  C 926.68 647  928 648.32  928 650  C 928 651.68  926.68 653  925 653  " fill-rule="nonzero" fill="#797979" stroke="none" />
</svg>