<?xml version="1.0" encoding="utf-8"?>
<svg version="1.1" xmlns:xlink="http://www.w3.org/1999/xlink" width="40px" height="40px" xmlns="http://www.w3.org/2000/svg">
  <g transform="matrix(1 0 0 1 -371 -1500 )">
    <path d="M 391 1500.5  C 401.92 1500.5  410.5 1509.08  410.5 1520  C 410.5 1530.92  401.92 1539.5  391 1539.5  C 380.08 1539.5  371.5 1530.92  371.5 1520  C 371.5 1509.08  380.08 1500.5  391 1500.5  Z " fill-rule="nonzero" fill="#f3f3f3" stroke="none" />
    <path d="M 391 1500.5  C 401.92 1500.5  410.5 1509.08  410.5 1520  C 410.5 1530.92  401.92 1539.5  391 1539.5  C 380.08 1539.5  371.5 1530.92  371.5 1520  C 371.5 1509.08  380.08 1500.5  391 1500.5  Z " stroke-width="1" stroke="#000000" fill="none" stroke-opacity="0.0470588235294118" />
  </g>
</svg>