<?xml version="1.0" encoding="utf-8"?>
<svg version="1.1" xmlns:xlink="http://www.w3.org/1999/xlink" width="24px" height="24px" xmlns="http://www.w3.org/2000/svg">
  <g transform="matrix(1 0 0 1 -379 -1612 )">
    <path d="M 391 1612.5  C 397.44 1612.5  402.5 1617.56  402.5 1624  C 402.5 1630.44  397.44 1635.5  391 1635.5  C 384.56 1635.5  379.5 1630.44  379.5 1624  C 379.5 1617.56  384.56 1612.5  391 1612.5  Z " fill-rule="nonzero" fill="#f3f3f3" stroke="none" />
    <path d="M 391 1612.5  C 397.44 1612.5  402.5 1617.56  402.5 1624  C 402.5 1630.44  397.44 1635.5  391 1635.5  C 384.56 1635.5  379.5 1630.44  379.5 1624  C 379.5 1617.56  384.56 1612.5  391 1612.5  Z " stroke-width="1" stroke="#000000" fill="none" stroke-opacity="0.0470588235294118" />
  </g>
</svg>