<?xml version="1.0" encoding="utf-8"?>
<svg version="1.1" xmlns:xlink="http://www.w3.org/1999/xlink" width="100px" height="100px" xmlns="http://www.w3.org/2000/svg">
  <g transform="matrix(1 0 0 1 -440 -254 )">
    <path d="M 440 254  L 540 254  L 540 354  L 440 354  L 440 254  " fill-rule="nonzero" fill="#cccccc" stroke="none" />
    <path d="M 447 261  L 533 261  L 533 347  L 447 347  L 447 261  " fill-rule="nonzero" fill="#ffffff" stroke="none" />
    <path d="M 499.5 284  C 495.3 284  492 280.7  492 276.5  C 492 272.3  495.3 269  499.5 269  C 503.7 269  507 272.3  507 276.5  C 507 280.7  503.7 284  499.5 284  " fill-rule="nonzero" fill="#cccccc" stroke="none" />
    <path d="M 450 345  L 450 300.45  L 470.25 280.2  L 498.6 296.4  L 514.8 292.35  L 531 296.4  L 531 345  L 450 345  " fill-rule="nonzero" fill="#169bd5" stroke="none" />
  </g>
</svg>