<?xml version="1.0" encoding="utf-8"?>
<svg version="1.1" xmlns:xlink="http://www.w3.org/1999/xlink" width="111px" height="111px" xmlns="http://www.w3.org/2000/svg">
  <g transform="matrix(1 0 0 1 -912 -263 )">
    <path d="M 967.5 263  C 998.58 263  1023 287.42  1023 318.5  C 1023 349.58  998.58 374  967.5 374  C 936.42 374  912 349.58  912 318.5  C 912 287.42  936.42 263  967.5 263  Z " fill-rule="nonzero" fill="#ffffff" stroke="none" />
    <path d="M 967.5 263.5  C 998.3 263.5  1022.5 287.7  1022.5 318.5  C 1022.5 349.3  998.3 373.5  967.5 373.5  C 936.7 373.5  912.5 349.3  912.5 318.5  C 912.5 287.7  936.7 263.5  967.5 263.5  Z " stroke-width="1" stroke="#797979" fill="none" />
  </g>
</svg>