<?xml version="1.0" encoding="utf-8"?>
<svg version="1.1" xmlns:xlink="http://www.w3.org/1999/xlink" width="208px" height="191px" xmlns="http://www.w3.org/2000/svg">
  <g transform="matrix(1 0 0 1 -955 -1214 )">
    <path d="M 955 1214  L 1163 1214  L 1163 1405  L 955 1405  L 955 1214  " fill-rule="nonzero" fill="#cccccc" stroke="none" />
    <path d="M 968 1227  L 1150 1227  L 1150 1392  L 968 1392  L 968 1227  " fill-rule="nonzero" fill="#ffffff" stroke="none" />
    <path d="M 1077.485 1271.3  C 1069.463 1271.3  1063.16 1264.997  1063.16 1256.975  C 1063.16 1248.953  1069.463 1242.65  1077.485 1242.65  C 1085.507 1242.65  1091.81 1248.953  1091.81 1256.975  C 1091.81 1264.997  1085.507 1271.3  1077.485 1271.3  " fill-rule="nonzero" fill="#cccccc" stroke="none" />
    <path d="M 973 1387  L 973 1301.75  L 1016 1263  L 1076.2 1301.60096153846  L 1110.6 1286.25  L 1145 1301.60096153846  L 1145 1387  L 973 1387  " fill-rule="nonzero" fill="#169bd5" stroke="none" />
  </g>
</svg>