<?xml version="1.0" encoding="utf-8"?>
<svg version="1.1" xmlns:xlink="http://www.w3.org/1999/xlink" width="50px" height="50px" xmlns="http://www.w3.org/2000/svg">
  <g transform="matrix(1 0 0 1 -984 -1285 )">
    <path d="M 30.4837740384615 19.5162259615385  C 30.674078525641 19.7065304487179  30.7692307692308 19.931891025641  30.7692307692308 20.1923076923077  L 30.7692307692308 22.1153846153846  C 30.7692307692308 22.3758012820513  30.674078525641 22.6011618589744  30.4837740384615 22.7914663461538  C 30.2934695512821 22.9817708333333  30.068108974359 23.0769230769231  29.8076923076923 23.0769230769231  L 23.0769230769231 23.0769230769231  L 23.0769230769231 29.8076923076923  C 23.0769230769231 30.068108974359  22.9817708333333 30.293469551282  22.7914663461538 30.4837740384615  C 22.6011618589744 30.674078525641  22.3758012820513 30.7692307692308  22.1153846153846 30.7692307692308  L 20.1923076923077 30.7692307692308  C 19.931891025641 30.7692307692308  19.7065304487179 30.674078525641  19.5162259615385 30.4837740384615  C 19.325921474359 30.293469551282  19.2307692307692 30.068108974359  19.2307692307692 29.8076923076923  L 19.2307692307692 23.0769230769231  L 12.5 23.0769230769231  C 12.2395833333333 23.0769230769231  12.0142227564103 22.9817708333333  11.8239182692308 22.7914663461538  C 11.6336137820513 22.6011618589744  11.5384615384615 22.3758012820513  11.5384615384615 22.1153846153846  L 11.5384615384615 20.1923076923077  C 11.5384615384615 19.931891025641  11.6336137820513 19.7065304487179  11.8239182692308 19.5162259615385  C 12.0142227564103 19.325921474359  12.2395833333333 19.2307692307692  12.5 19.2307692307692  L 19.2307692307692 19.2307692307692  L 19.2307692307692 12.5  C 19.2307692307692 12.2395833333333  19.325921474359 12.0142227564103  19.5162259615385 11.8239182692308  C 19.7065304487179 11.6336137820513  19.931891025641 11.5384615384615  20.1923076923077 11.5384615384615  L 22.1153846153846 11.5384615384615  C 22.3758012820513 11.5384615384615  22.6011618589744 11.6336137820513  22.7914663461538 11.8239182692308  C 22.9817708333333 12.0142227564103  23.0769230769231 12.2395833333333  23.0769230769231 12.5  L 23.0769230769231 19.2307692307692  L 29.8076923076923 19.2307692307692  C 30.068108974359 19.2307692307692  30.2934695512821 19.325921474359  30.4837740384615 19.5162259615385  Z M 30.6640625 30.6640625  C 33.2982772435897 28.0298477564103  34.6153846153846 24.8597756410256  34.6153846153846 21.1538461538462  C 34.6153846153846 17.4479166666667  33.2982772435897 14.277844551282  30.6640625 11.6436298076923  C 28.0298477564103 9.00941506410256  24.8597756410256 7.69230769230769  21.1538461538462 7.69230769230769  C 17.4479166666667 7.69230769230769  14.2778445512821 9.00941506410256  11.6436298076923 11.6436298076923  C 9.00941506410256 14.277844551282  7.69230769230769 17.4479166666667  7.69230769230769 21.1538461538462  C 7.69230769230769 24.8597756410256  9.00941506410256 28.0298477564103  11.6436298076923 30.6640625  C 14.2778445512821 33.2982772435897  17.4479166666667 34.6153846153846  21.1538461538462 34.6153846153846  C 24.8597756410256 34.6153846153846  28.0298477564103 33.2982772435897  30.6640625 30.6640625  Z M 48.8882211538462 43.4495192307692  C 49.6294070512821 44.1907051282051  50 45.0921474358974  50 46.1538461538462  C 50 47.2155448717949  49.6243990384615 48.1219951923077  48.8731971153846 48.8731971153846  C 48.1219951923077 49.6243990384615  47.2155448717949 50  46.1538461538462 50  C 45.0721153846154 50  44.1706730769231 49.619391025641  43.4495192307692 48.8581730769231  L 33.1430288461538 38.5817307692308  C 29.5572916666667 41.0657051282051  25.5608974358974 42.3076923076923  21.1538461538462 42.3076923076923  C 18.2892628205128 42.3076923076923  15.5498798076923 41.7518028846154  12.9356971153846 40.6400240384615  C 10.3215144230769 39.5282451923077  8.06790865384615 38.0258413461538  6.17487980769231 36.1328125  C 4.28185096153846 34.2397836538462  2.77944711538462 31.9861778846154  1.66766826923077 29.3719951923077  C 0.555889423076923 26.7578125  0 24.0184294871795  0 21.1538461538462  C 0 18.2892628205128  0.555889423076923 15.5498798076923  1.66766826923077 12.9356971153846  C 2.77944711538462 10.3215144230769  4.28185096153846 8.06790865384616  6.17487980769231 6.17487980769231  C 8.06790865384615 4.28185096153846  10.3215144230769 2.77944711538461  12.9356971153846 1.66766826923077  C 15.5498798076923 0.555889423076922  18.2892628205128 0  21.1538461538462 0  C 24.0184294871795 0  26.7578125 0.555889423076922  29.3719951923077 1.66766826923077  C 31.9861778846154 2.77944711538461  34.2397836538462 4.28185096153846  36.1328125 6.17487980769231  C 38.0258413461538 8.06790865384616  39.5282451923077 10.3215144230769  40.6400240384615 12.9356971153846  C 41.7518028846154 15.5498798076923  42.3076923076923 18.2892628205128  42.3076923076923 21.1538461538462  C 42.3076923076923 25.5608974358974  41.0657051282051 29.5572916666667  38.5817307692308 33.1430288461538  L 48.8882211538462 43.4495192307692  Z " fill-rule="nonzero" fill="#000000" stroke="none" transform="matrix(1 0 0 1 984 1285 )" />
  </g>
</svg>